<?xml version="1.0" encoding="UTF-8" standalone="no"?>
<!-- Created with Inkscape (http://www.inkscape.org/) -->

<svg
   width="210mm"
   height="297mm"
   viewBox="0 0 210 297"
   version="1.1"
   id="svg5"
   xml:space="preserve"
   inkscape:version="1.2.1 (9c6d41e410, 2022-07-14)"
   sodipodi:docname="1054UN.svg"
   xmlns:inkscape="http://www.inkscape.org/namespaces/inkscape"
   xmlns:sodipodi="http://sodipodi.sourceforge.net/DTD/sodipodi-0.dtd"
   xmlns="http://www.w3.org/2000/svg"
   xmlns:svg="http://www.w3.org/2000/svg"><sodipodi:namedview
     id="namedview7"
     pagecolor="#ffffff"
     bordercolor="#666666"
     borderopacity="1.0"
     inkscape:showpageshadow="2"
     inkscape:pageopacity="0.0"
     inkscape:pagecheckerboard="0"
     inkscape:deskcolor="#d1d1d1"
     inkscape:document-units="mm"
     showgrid="false"
     inkscape:zoom="1.1893044"
     inkscape:cx="272.84857"
     inkscape:cy="396.87064"
     inkscape:window-width="1920"
     inkscape:window-height="1017"
     inkscape:window-x="1912"
     inkscape:window-y="-8"
     inkscape:window-maximized="1"
     inkscape:current-layer="layer1" /><defs
     id="defs2" /><g
     inkscape:label="Layer 1"
     inkscape:groupmode="layer"
     id="layer1"><path
       id="outline"
       style="display:inline;fill:#000000;stroke-width:0.364318"
       d="M 84.872856 30.666345 L 79.772392 30.668929 L 74.671928 30.670996 L 71.657642 31.469914 L 68.642839 32.269348 L 65.80942 33.65376 L 62.976518 35.038171 L 60.798873 36.517151 L 58.621228 37.99613 L 56.612048 40.314335 L 54.602869 42.63254 L 53.296488 44.454134 L 51.990108 46.275728 L 50.724036 48.82596 L 49.457963 51.376192 L 48.600134 54.108325 L 47.741789 56.840975 L 47.739722 62.66956 L 47.737138 68.498661 L 48.539673 71.048893 L 49.342208 73.599125 L 50.653239 76.336943 L 51.96427 79.074243 L 57.719991 82.461633 L 63.476229 85.84954 L 64.277214 86.702201 L 65.078198 87.555379 L 65.409961 88.956844 L 65.741724 90.357792 L 65.716919 102.86969 L 65.692114 115.38107 L 65.905538 115.59449 L 66.118962 115.80792 L 67.943656 115.72472 L 69.768351 115.64152 L 69.74613 139.89275 L 69.723393 164.1445 L 71.40081 166.23326 L 73.078227 168.32203 L 74.229061 169.14161 L 75.379895 169.96172 L 76.416007 169.96172 L 77.45212 169.96172 L 78.247937 169.55813 L 79.043754 169.15453 L 84.599487 163.64221 L 90.155737 158.12988 L 90.155737 136.90431 L 90.155737 115.67821 L 92.155098 115.67821 L 94.154976 115.67821 L 94.250061 101.26152 L 94.345146 86.844828 L 101.0822 82.949459 L 107.81874 79.054606 L 108.68174 77.237663 L 109.54473 75.420719 L 110.5979 72.199727 L 111.65107 68.978219 L 112.00867 65.818722 L 112.36678 62.659224 L 112.02779 59.68783 L 111.68879 56.716435 L 110.8816 54.046313 L 110.07442 51.376192 L 109.00162 48.844047 L 107.9283 46.312419 L 106.00593 43.743583 L 104.08409 41.175264 L 102.12917 39.322148 L 100.17425 37.469548 L 98.352653 36.17867 L 96.531059 34.887276 L 93.894527 33.56591 L 91.257996 32.24506 L 88.065426 31.455444 L 84.872856 30.666345 z M 81.285478 38.988835 L 83.079167 39.828577 L 84.872856 40.667802 L 85.760657 42.01449 L 86.648458 43.360661 L 86.671712 45.728992 L 86.69445 48.096806 L 85.948242 49.367013 L 85.202035 50.637219 L 83.684298 51.704338 L 82.166044 52.770939 L 80.24058 52.899097 L 78.315116 53.027254 L 77.22216 52.522375 L 76.129203 52.018014 L 75.17784 51.123494 L 74.226477 50.228975 L 73.564502 49.218701 L 72.902527 48.208427 L 72.876172 45.935697 L 72.850334 43.662968 L 73.856991 42.209827 L 74.864164 40.757202 L 76.34056 39.927279 L 77.816956 39.097355 L 79.551217 39.043095 L 81.285478 38.988835 z "
       inkscape:label="outline" /><path
       style="display:inline;fill:#000000;stroke-width:0.364318"
       d="m 77.696139,234.80956 -3.533562,6.5e-4 -0.972578,-1.27511 -0.972577,-1.27511 h -1.231873 -1.231874 v -2.18591 -2.18591 h 1.998582 1.998582 l 0.964378,1.45727 0.964378,1.45727 h 1.894363 1.894364 l 1.171098,-1.45727 1.171098,-1.45727 4.26357,-2.3e-4 4.263574,-2.3e-4 -0.12624,1.82182 -0.126243,1.82182 H 86.69277 83.300361 l -1.035331,1.63878 -1.035327,1.63878 -3.533564,7.3e-4 z"
       id="path1626"
       inkscape:label="Warding" /></g></svg>
