<?xml version="1.0" encoding="UTF-8" standalone="no"?>
<!-- Created with Inkscape (http://www.inkscape.org/) -->

<svg
   width="210mm"
   height="297mm"
   viewBox="0 0 210 297"
   version="1.1"
   id="svg5"
   xml:space="preserve"
   inkscape:version="1.2.1 (9c6d41e410, 2022-07-14)"
   sodipodi:docname="B97-PT.svg"
   xmlns:inkscape="http://www.inkscape.org/namespaces/inkscape"
   xmlns:sodipodi="http://sodipodi.sourceforge.net/DTD/sodipodi-0.dtd"
   xmlns="http://www.w3.org/2000/svg"
   xmlns:svg="http://www.w3.org/2000/svg"><sodipodi:namedview
     id="namedview7"
     pagecolor="#ffffff"
     bordercolor="#666666"
     borderopacity="1.0"
     inkscape:showpageshadow="2"
     inkscape:pageopacity="0.0"
     inkscape:pagecheckerboard="0"
     inkscape:deskcolor="#d1d1d1"
     inkscape:document-units="mm"
     showgrid="false"
     inkscape:zoom="3.3638608"
     inkscape:cx="158.30025"
     inkscape:cy="98.696117"
     inkscape:window-width="1920"
     inkscape:window-height="1017"
     inkscape:window-x="1912"
     inkscape:window-y="-8"
     inkscape:window-maximized="1"
     inkscape:current-layer="layer1" /><defs
     id="defs2" /><g
     inkscape:label="Layer 1"
     inkscape:groupmode="layer"
     id="layer1"><path
       style="fill:#000000;stroke-width:0.0842118"
       d="m 68.402865,14.64925 h -0.586204 l -0.02432,-0.736853 -0.02435,-0.736856 -0.442111,-0.02546 -0.442112,-0.02546 v -1.004203 -1.004199 l 0.210527,-0.137943 0.21053,-0.137947 v -0.14406 -0.144058 L 67.094299,10.354423 66.883772,10.15664 V 8.4028721 6.6490975 h 0.586204 0.586204 l 0.02432,0.7368562 0.02432,0.7368531 0.442115,0.025463 0.442112,0.025462 v 1.0225869 1.0225863 l -0.231581,0.243097 -0.231585,0.243097 0.231585,0.185733 0.231581,0.185737 v 1.786337 1.786341 z"
       id="warding"
       inkscape:label="warding" /><path
       id="outline"
       style="display:inline;fill:#000000;stroke-width:0.0842118"
       d="m 4.7353699,21.181633 0.1730292,0.965478 0.1730291,0.965474 0.2583922,0.926332 0.2583925,0.926333 0.4620143,0.922054 0.4618497,0.922054 0.4881662,0.720076 0.4880015,0.72008 0.5579038,0.605766 0.5579042,0.605603 0.5570816,0.389478 0.557246,0.38948 0.6403068,0.268098 0.640471,0.267933 h 7.621179 7.62118 l 0.670077,-0.279776 0.669912,-0.27961 0.537345,-0.394086 0.537179,-0.393921 0.405106,-0.547377 0.404939,-0.547377 0.262013,-0.631588 0.261847,-0.631591 0.06266,-0.842118 0.06267,-0.842121 2.819785,-0.02222 2.819945,-0.02222 0.488002,-0.483065 0.488167,-0.483068 13.640027,-0.02187 13.639864,-0.02171 2.336717,-1.488181 2.336553,-1.488019 0.186516,-0.216451 h -3.18e-4 l 0.186519,-0.21645 0.0013,-0.589486 0.0013,-0.589482 -0.145398,-0.188821 -0.145562,-0.188982 -1.13686,-0.709879 -1.136862,-0.710044 -0.998866,-0.61695 -0.998865,-0.616953 -0.166121,-0.09556 -0.16612,-0.09556 -0.09392,-0.09391 -0.09408,-0.09392 H 50.404475 36.822012 l -0.485203,-0.435864 -0.485042,-0.436027 -0.04638,-0.06809 -0.04638,-0.06826 -2.81682,-0.02222 -2.816825,-0.02222 -0.06036,-0.800016 -0.06053,-0.800013 L 29.741473,12.997398 29.478477,12.313997 29.059718,11.80264 28.640961,11.291449 28.12977,10.872693 27.618413,10.453933 26.935012,10.197678 26.251614,9.941427 25.543543,9.853101 24.835307,9.764944 h -6.191643 -6.19155 L 11.68861,9.8613451 10.924946,9.9577302 10.46178,10.16053 9.998615,10.363491 9.3456437,10.746065 8.6926722,11.128636 8.0744054,11.794274 7.4561386,12.459743 6.9459327,13.28081 6.4355623,14.101877 6.0169699,14.943995 5.5982129,15.786116 5.3398204,16.712445 5.0814282,17.638777 4.9083991,18.604252 4.7353699,19.569564 v 0.806101 z m 4.3411902,-1.942795 0.059376,-0.294741 0.059211,-0.294742 0.082732,-0.283228 0.082896,-0.283229 -0.00691,-0.05362 -0.00674,-0.05362 0.020395,-0.06316 0.020561,-0.06316 0.013982,-0.06316 0.014144,-0.06316 0.1460552,-0.273687 0.1458906,-0.27369 h -0.042932 -0.043093 l 0.1669436,-0.273687 0.1667791,-0.27369 3.183e-4,-0.136679 3.183e-4,-0.136845 0.5857008,-0.756755 0.585701,-0.756759 0.235365,-0.08914 0.235366,-0.08915 0.230925,-0.05033 0.230925,-0.05049 0.274346,0.116943 0.274347,0.116939 0.191944,0.208395 0.191944,0.208392 0.01859,5.162089 0.01858,5.162093 -0.411026,0.31349 -0.411027,0.313495 -0.321058,-0.02187 -0.321058,-0.02171 -0.258721,-0.184215 -0.258557,-0.184215 -0.504121,-0.662015 -0.503955,-0.662184 v -0.04687 -0.04671 L 9.7813205,23.765406 9.5219413,23.196812 9.4556573,23.028387 9.3893734,22.859965 9.2918389,22.48101 9.1943042,22.102058 9.1461126,21.849422 9.097921,21.596787 9.0872299,20.417819 Z"
       inkscape:label="outline" /><path
       id="engrave"
       style="fill:#ff00ff;stroke-width:0.0842118"
       d="m 19.001067,20.754652 0.01118,0.584715 0.01118,0.584715 0.119246,0.06414 0.119246,0.06398 0.800013,0.368923 0.800012,0.368754 0.378955,0.172865 0.378952,0.17303 0.0653,0.0054 0.06546,0.0053 0.397706,0.20658 0.397867,0.206418 0.161681,0.05296 0.16168,0.05313 0.04885,-0.07878 0.04885,-0.07878 -0.01497,-0.605603 -0.0148,-0.605603 -0.0273,-0.02467 -0.02714,-0.02451 -1.803812,-0.893928 -1.803648,-0.893765 h -0.102304 -0.102305 l -0.03487,0.14737 z m 8.27e-4,2.063192 0.0038,0.715802 0.0036,0.715636 0.08553,1.66e-4 h 0.08536 l 0.293591,0.151648 0.293426,0.151811 0.08421,-0.0058 0.08421,-0.0056 0.08421,-0.05395 0.08421,-0.05394 V 23.84331 23.252838 l -0.05247,-0.05247 -0.05247,-0.05247 -0.451652,-0.165134 -0.451652,-0.164972 h -0.04688 z m 1.607427,0.758073 0.0064,0.615963 0.0064,0.615801 0.0625,0.100988 0.0625,0.101153 0.983734,0.484548 0.983734,0.484548 0.126316,-0.02483 0.12632,-0.02467 v -0.676984 -0.676822 l -0.884227,-0.423031 -0.884223,-0.423034 -0.210531,-0.107897 -0.21053,-0.107732 -0.08421,0.03091 z m 0.01793,-8.042402 0.01201,0.895408 0.01217,0.895574 0.484217,0.186847 0.484217,0.187009 0.252636,0.109378 0.252636,0.109539 0.252635,0.106252 0.252636,0.106418 0.124181,0.02336 0.124343,0.02352 0.05033,-0.08142 h -1.63e-4 l 0.05033,-0.08142 -0.02221,-0.903305 -0.0222,-0.90347 -0.0049,-0.130101 -0.0049,-0.1301 -0.363166,-0.149838 -0.363165,-0.149675 -0.748859,-0.369578 -0.748696,-0.369741 -0.03323,0.03322 -0.03306,0.03306 -0.0039,0.279448 z m 0.01036,2.526358 0.0028,1.115805 0.003,1.115808 0.0039,0.07385 0.0041,0.07385 0.420236,0.180758 0.420237,0.180762 0.02188,-0.0069 0.02188,-0.0067 0.634878,0.326487 0.634879,0.326649 0.109378,-0.03651 0.109377,-0.03635 -0.04819,-0.180103 -0.04836,-0.179937 -0.0013,-0.972056 -0.0013,-0.972219 -0.336354,-0.08964 -0.336356,-0.0898 -0.06842,0.09342 -0.06859,0.09342 0.01431,0.186519 0.01431,0.186516 0.137994,0.210527 0.137832,0.210531 v 0.168425 0.168424 l -0.14737,0.07171 -0.147371,0.07171 -0.08421,-0.01267 -0.08421,-0.01267 -0.227141,-0.09441 -0.227142,-0.09441 -0.136679,-0.208723 -0.13668,-0.208553 0.09441,-0.176484 0.09441,-0.176484 0.07994,0.04951 0.07994,0.04934 0.0077,-0.131253 0.0077,-0.131253 V 18.94409 18.691455 l -0.0077,-0.08323 -0.0077,-0.08306 -0.325007,-0.205265 -0.325006,-0.205101 -0.145066,-0.02747 z m 0.350663,-1.565817 v -0.161515 -0.161518 l 0.162833,-0.08717 0.162995,-0.08717 h 0.245726 0.245729 l 0.286023,0.192109 0.286189,0.192273 0.02533,0.344578 0.02533,0.344415 -0.137504,0.0528 -0.1375,0.0528 H 21.94158 21.729572 L 21.45473,17.04523 21.180057,16.914798 21.084167,16.704433 Z"
       inkscape:label="engrave" /></g></svg>
