<?xml version="1.0" encoding="UTF-8" standalone="no"?>
<!-- Created with Inkscape (http://www.inkscape.org/) -->

<svg
   width="210mm"
   height="297mm"
   viewBox="0 0 210 297"
   version="1.1"
   id="svg61366"
   inkscape:version="1.2.2 (b0a8486541, 2022-12-01)"
   sodipodi:docname="falcon.svg"
   xml:space="preserve"
   xmlns:inkscape="http://www.inkscape.org/namespaces/inkscape"
   xmlns:sodipodi="http://sodipodi.sourceforge.net/DTD/sodipodi-0.dtd"
   xmlns:xlink="http://www.w3.org/1999/xlink"
   xmlns="http://www.w3.org/2000/svg"
   xmlns:svg="http://www.w3.org/2000/svg"
   xmlns:rdf="http://www.w3.org/1999/02/22-rdf-syntax-ns#"
   xmlns:cc="http://creativecommons.org/ns#"
   xmlns:dc="http://purl.org/dc/elements/1.1/"><sodipodi:namedview
     id="base"
     pagecolor="#ffffff"
     bordercolor="#666666"
     borderopacity="1.0"
     inkscape:pageopacity="0.0"
     inkscape:pageshadow="2"
     inkscape:zoom="2"
     inkscape:cx="210.75"
     inkscape:cy="138.5"
     inkscape:document-units="mm"
     inkscape:current-layer="layer1"
     showgrid="false"
     inkscape:window-width="1418"
     inkscape:window-height="831"
     inkscape:window-x="312"
     inkscape:window-y="35"
     inkscape:window-maximized="0"
     inkscape:showpageshadow="2"
     inkscape:pagecheckerboard="0"
     inkscape:deskcolor="#d1d1d1" /><defs
     id="defs61360"><clipPath
       id="clipPath858"
       clipPathUnits="userSpaceOnUse"><path
         inkscape:connector-curvature="0"
         id="path856"
         d="m 173.421,372.542 h 265.158 v 171.88 H 173.421 Z" /></clipPath><clipPath
       id="clipPath794"
       clipPathUnits="userSpaceOnUse"><path
         inkscape:connector-curvature="0"
         id="path792"
         d="m 173.421,372.542 h 265.158 v 171.88 H 173.421 Z" /></clipPath><clipPath
       id="clipPath746"
       clipPathUnits="userSpaceOnUse"><path
         inkscape:connector-curvature="0"
         id="path744"
         d="m 173.421,372.542 h 265.158 v 171.88 H 173.421 Z" /></clipPath><clipPath
       id="clipPath706"
       clipPathUnits="userSpaceOnUse"><path
         inkscape:connector-curvature="0"
         id="path704"
         d="m 173.421,372.542 h 265.158 v 171.88 H 173.421 Z" /></clipPath><clipPath
       id="clipPath682"
       clipPathUnits="userSpaceOnUse"><path
         inkscape:connector-curvature="0"
         id="path680"
         d="m 173.421,372.542 h 265.158 v 171.88 H 173.421 Z" /></clipPath><clipPath
       id="clipPath642"
       clipPathUnits="userSpaceOnUse"><path
         inkscape:connector-curvature="0"
         id="path640"
         d="m 173.421,372.542 h 265.158 v 171.88 H 173.421 Z" /></clipPath><clipPath
       id="clipPath598"
       clipPathUnits="userSpaceOnUse"><path
         inkscape:connector-curvature="0"
         id="path596"
         d="m 173.421,372.542 h 265.158 v 171.88 H 173.421 Z" /></clipPath><clipPath
       id="clipPath512"
       clipPathUnits="userSpaceOnUse"><path
         inkscape:connector-curvature="0"
         id="path510"
         d="m 173.421,372.542 h 265.158 v 171.88 H 173.421 Z" /></clipPath><clipPath
       id="clipPath462"
       clipPathUnits="userSpaceOnUse"><path
         inkscape:connector-curvature="0"
         id="path460"
         d="m 173.421,372.542 h 265.158 v 171.88 H 173.421 Z" /></clipPath><clipPath
       id="clipPath422"
       clipPathUnits="userSpaceOnUse"><path
         inkscape:connector-curvature="0"
         id="path420"
         d="m 173.421,372.542 h 265.158 v 171.88 H 173.421 Z" /></clipPath><clipPath
       id="clipPath"
       clipPathUnits="userSpaceOnUse"><use
         xlink:href="#path856"
         transform="matrix(1.000000,0.000000,0.000000,1.000000,-418.418800,-429.328000)"
         id="use" /></clipPath><clipPath
       id="clipPathc"
       clipPathUnits="userSpaceOnUse"><use
         xlink:href="#path856"
         transform="matrix(1.000000,0.000000,0.000000,1.000000,-418.553300,-425.383600)"
         id="uset" /></clipPath><clipPath
       id="clipPathN"
       clipPathUnits="userSpaceOnUse"><use
         xlink:href="#path856"
         transform="matrix(1.000000,0.000000,0.000000,1.000000,-284.260700,-540.054300)"
         id="use7" /></clipPath><clipPath
       id="clipPathv"
       clipPathUnits="userSpaceOnUse"><use
         xlink:href="#path856"
         transform="matrix(1.000000,0.000000,0.000000,1.000000,-284.260700,-540.054300)"
         id="useY" /></clipPath><clipPath
       id="clipPath7"
       clipPathUnits="userSpaceOnUse"><use
         xlink:href="#path704"
         transform="matrix(1.000000,0.000000,0.000000,1.000000,-414.257100,-388.156500)"
         id="useF" /></clipPath><clipPath
       id="clipPathW"
       clipPathUnits="userSpaceOnUse"><use
         xlink:href="#path704"
         transform="matrix(1.000000,0.000000,0.000000,1.000000,-414.257100,-388.156500)"
         id="useB" /></clipPath><clipPath
       id="clipPath5"
       clipPathUnits="userSpaceOnUse"><use
         xlink:href="#path680"
         transform="matrix(1.000000,0.000000,0.000000,1.000000,-356.251500,-404.632800)"
         id="usej" /></clipPath><clipPath
       id="clipPathr"
       clipPathUnits="userSpaceOnUse"><use
         xlink:href="#path680"
         transform="matrix(1.000000,0.000000,0.000000,1.000000,-364.468000,-397.413000)"
         id="useW" /></clipPath><clipPath
       id="clipPathH"
       clipPathUnits="userSpaceOnUse"><use
         xlink:href="#path680"
         transform="matrix(1.000000,0.000000,0.000000,1.000000,-369.243100,-389.494900)"
         id="useWw" /></clipPath><clipPath
       id="clipPathU"
       clipPathUnits="userSpaceOnUse"><use
         xlink:href="#path460"
         transform="matrix(1.000000,0.000000,0.000000,1.000000,-175.904500,-404.632800)"
         id="use0" /></clipPath><clipPath
       id="clipPathR"
       clipPathUnits="userSpaceOnUse"><use
         xlink:href="#path460"
         transform="matrix(1.000000,0.000000,0.000000,1.000000,-184.127400,-397.413000)"
         id="usek" /></clipPath><clipPath
       id="clipPathD"
       clipPathUnits="userSpaceOnUse"><use
         xlink:href="#path460"
         transform="matrix(1.000000,0.000000,0.000000,1.000000,-188.898000,-389.494900)"
         id="useV" /></clipPath><clipPath
       id="clipPathUo"
       clipPathUnits="userSpaceOnUse"><use
         xlink:href="#path640"
         transform="matrix(1.000000,0.000000,0.000000,1.000000,-369.440200,-387.795400)"
         id="usee" /></clipPath><clipPath
       id="clipPathV"
       clipPathUnits="userSpaceOnUse"><use
         xlink:href="#path640"
         transform="matrix(1.000000,0.000000,0.000000,1.000000,-369.440200,-387.795400)"
         id="useR" /></clipPath><clipPath
       id="clipPathK"
       clipPathUnits="userSpaceOnUse"><use
         xlink:href="#path596"
         transform="matrix(1.000000,0.000000,0.000000,1.000000,-288.283800,-423.593500)"
         id="useV0" /></clipPath><clipPath
       id="clipPathu"
       clipPathUnits="userSpaceOnUse"><use
         xlink:href="#path596"
         transform="matrix(1.000000,0.000000,0.000000,1.000000,-368.961300,-423.866100)"
         id="usey" /></clipPath><clipPath
       id="clipPathO"
       clipPathUnits="userSpaceOnUse"><use
         xlink:href="#path596"
         transform="matrix(1.000000,0.000000,0.000000,1.000000,-292.268100,-425.675200)"
         id="usel" /></clipPath><clipPath
       id="clipPathI"
       clipPathUnits="userSpaceOnUse"><use
         xlink:href="#path596"
         transform="matrix(1.000000,0.000000,0.000000,1.000000,-311.165200,-404.632800)"
         id="useI" /></clipPath><clipPath
       id="clipPath5g"
       clipPathUnits="userSpaceOnUse"><use
         xlink:href="#path596"
         transform="matrix(1.000000,0.000000,0.000000,1.000000,-319.382600,-397.413000)"
         id="usep" /></clipPath><clipPath
       id="clipPathd"
       clipPathUnits="userSpaceOnUse"><use
         xlink:href="#path596"
         transform="matrix(1.000000,0.000000,0.000000,1.000000,-324.159100,-389.494900)"
         id="usew" /></clipPath><clipPath
       id="clipPatht"
       clipPathUnits="userSpaceOnUse"><use
         xlink:href="#path596"
         transform="matrix(1.000000,0.000000,0.000000,1.000000,-324.133400,-387.687700)"
         id="useo" /></clipPath><clipPath
       id="clipPathy"
       clipPathUnits="userSpaceOnUse"><use
         xlink:href="#path596"
         transform="matrix(1.000000,0.000000,0.000000,1.000000,-324.133400,-387.687700)"
         id="useYP" /></clipPath><clipPath
       id="clipPathj"
       clipPathUnits="userSpaceOnUse"><use
         xlink:href="#path420"
         transform="matrix(1.000000,0.000000,0.000000,1.000000,-188.925200,-387.869100)"
         id="usec" /></clipPath><clipPath
       id="clipPathq"
       clipPathUnits="userSpaceOnUse"><use
         xlink:href="#path420"
         transform="matrix(1.000000,0.000000,0.000000,1.000000,-188.925200,-387.869100)"
         id="usepC" /></clipPath><clipPath
       id="clipPathp"
       clipPathUnits="userSpaceOnUse"><use
         xlink:href="#path792"
         transform="matrix(1.000000,0.000000,0.000000,1.000000,-326.003200,-456.442000)"
         id="usef" /></clipPath><clipPath
       id="clipPathqO"
       clipPathUnits="userSpaceOnUse"><use
         xlink:href="#path792"
         transform="matrix(1.000000,0.000000,0.000000,1.000000,-326.003200,-456.442000)"
         id="useeQ" /></clipPath><clipPath
       id="clipPathql"
       clipPathUnits="userSpaceOnUse"><use
         xlink:href="#path792"
         transform="matrix(1.000000,0.000000,0.000000,1.000000,-237.258900,-473.456200)"
         id="usei" /></clipPath><clipPath
       id="clipPathqf"
       clipPathUnits="userSpaceOnUse"><use
         xlink:href="#path792"
         transform="matrix(1.000000,0.000000,0.000000,1.000000,-237.258900,-473.456200)"
         id="useq" /></clipPath><clipPath
       id="clipPathv6"
       clipPathUnits="userSpaceOnUse"><use
         xlink:href="#path792"
         transform="matrix(1.000000,0.000000,0.000000,1.000000,-328.674600,-444.151300)"
         id="usea" /></clipPath><clipPath
       id="clipPathyP"
       clipPathUnits="userSpaceOnUse"><use
         xlink:href="#path792"
         transform="matrix(1.000000,0.000000,0.000000,1.000000,-328.809000,-425.369400)"
         id="useO" /></clipPath><clipPath
       id="clipPathx"
       clipPathUnits="userSpaceOnUse"><use
         xlink:href="#path792"
         transform="matrix(1.000000,0.000000,0.000000,1.000000,-237.421000,-444.151300)"
         id="useln" /></clipPath><clipPath
       id="clipPathb"
       clipPathUnits="userSpaceOnUse"><use
         xlink:href="#path792"
         transform="matrix(1.000000,0.000000,0.000000,1.000000,-237.555500,-425.369400)"
         id="useX" /></clipPath><clipPath
       id="clipPathg"
       clipPathUnits="userSpaceOnUse"><use
         xlink:href="#path792"
         transform="matrix(1.000000,0.000000,0.000000,1.000000,-266.078900,-404.632800)"
         id="usez" /></clipPath><clipPath
       id="clipPathH3"
       clipPathUnits="userSpaceOnUse"><use
         xlink:href="#path792"
         transform="matrix(1.000000,0.000000,0.000000,1.000000,-274.300000,-397.413000)"
         id="useBQ" /></clipPath><clipPath
       id="clipPath1"
       clipPathUnits="userSpaceOnUse"><use
         xlink:href="#path792"
         transform="matrix(1.000000,0.000000,0.000000,1.000000,-279.070600,-389.494900)"
         id="useE" /></clipPath><clipPath
       id="clipPathK1"
       clipPathUnits="userSpaceOnUse"><use
         xlink:href="#path792"
         transform="matrix(1.000000,0.000000,0.000000,1.000000,-279.089900,-387.850700)"
         id="use3" /></clipPath><clipPath
       id="clipPath3"
       clipPathUnits="userSpaceOnUse"><use
         xlink:href="#path792"
         transform="matrix(1.000000,0.000000,0.000000,1.000000,-279.089900,-387.850700)"
         id="usecI" /></clipPath><clipPath
       id="clipPaths"
       clipPathUnits="userSpaceOnUse"><use
         xlink:href="#path744"
         transform="matrix(1.000000,0.000000,0.000000,1.000000,-401.337300,-404.632800)"
         id="user" /></clipPath><clipPath
       id="clipPath2"
       clipPathUnits="userSpaceOnUse"><use
         xlink:href="#path744"
         transform="matrix(1.000000,0.000000,0.000000,1.000000,-409.553700,-397.413000)"
         id="useT" /></clipPath><clipPath
       id="clipPathG"
       clipPathUnits="userSpaceOnUse"><use
         xlink:href="#path744"
         transform="matrix(1.000000,0.000000,0.000000,1.000000,-414.328900,-389.494900)"
         id="useU" /></clipPath><clipPath
       id="clipPathOS"
       clipPathUnits="userSpaceOnUse"><use
         xlink:href="#path510"
         transform="matrix(1.000000,0.000000,0.000000,1.000000,-245.062300,-481.617500)"
         id="use4" /></clipPath><clipPath
       id="clipPath0"
       clipPathUnits="userSpaceOnUse"><use
         xlink:href="#path510"
         transform="matrix(1.000000,0.000000,0.000000,1.000000,-325.679900,-481.890200)"
         id="useWl" /></clipPath><clipPath
       id="clipPathyY"
       clipPathUnits="userSpaceOnUse"><use
         xlink:href="#path510"
         transform="matrix(1.000000,0.000000,0.000000,1.000000,-249.046200,-483.699300)"
         id="useEx" /></clipPath><clipPath
       id="clipPathe"
       clipPathUnits="userSpaceOnUse"><use
         xlink:href="#path510"
         transform="matrix(1.000000,0.000000,0.000000,1.000000,-197.278000,-423.593500)"
         id="usekN" /></clipPath><clipPath
       id="clipPathw"
       clipPathUnits="userSpaceOnUse"><use
         xlink:href="#path510"
         transform="matrix(1.000000,0.000000,0.000000,1.000000,-277.895700,-423.866100)"
         id="useh" /></clipPath><clipPath
       id="clipPathN6"
       clipPathUnits="userSpaceOnUse"><use
         xlink:href="#path510"
         transform="matrix(1.000000,0.000000,0.000000,1.000000,-201.261900,-425.675200)"
         id="useS" /></clipPath><clipPath
       id="clipPathD1"
       clipPathUnits="userSpaceOnUse"><use
         xlink:href="#path510"
         transform="matrix(1.000000,0.000000,0.000000,1.000000,-220.990800,-404.632800)"
         id="useOs" /></clipPath><clipPath
       id="clipPath3O"
       clipPathUnits="userSpaceOnUse"><use
         xlink:href="#path510"
         transform="matrix(1.000000,0.000000,0.000000,1.000000,-233.984300,-389.494900)"
         id="useg" /></clipPath><clipPath
       id="clipPathi"
       clipPathUnits="userSpaceOnUse"><use
         xlink:href="#path510"
         transform="matrix(1.000000,0.000000,0.000000,1.000000,-229.213800,-397.413000)"
         id="useH" /></clipPath><clipPath
       id="clipPathx5"
       clipPathUnits="userSpaceOnUse"><use
         xlink:href="#path510"
         transform="matrix(1.000000,0.000000,0.000000,1.000000,-233.981100,-387.890300)"
         id="useZ" /></clipPath><clipPath
       id="clipPath6"
       clipPathUnits="userSpaceOnUse"><use
         xlink:href="#path510"
         transform="matrix(1.000000,0.000000,0.000000,1.000000,-233.981100,-387.890300)"
         id="useY2" /></clipPath><clipPath
       id="clipPathj-3"
       clipPathUnits="userSpaceOnUse"><use
         xlink:href="#path420"
         transform="matrix(1.000000,0.000000,0.000000,1.000000,-188.925200,-387.869100)"
         id="usec-6" /></clipPath><clipPath
       id="clipPathj-6"
       clipPathUnits="userSpaceOnUse"><use
         xlink:href="#path420"
         transform="matrix(1.000000,0.000000,0.000000,1.000000,-188.925200,-387.869100)"
         id="usec-2" /></clipPath><clipPath
       id="clipPathj-6-1"
       clipPathUnits="userSpaceOnUse"><use
         xlink:href="#path420"
         transform="matrix(1.000000,0.000000,0.000000,1.000000,-188.925200,-387.869100)"
         id="usec-2-2" /></clipPath><clipPath
       id="clipPathN-1"
       clipPathUnits="userSpaceOnUse"><use
         xlink:href="#path856"
         transform="matrix(1.000000,0.000000,0.000000,1.000000,-284.260700,-540.054300)"
         id="use7-8" /></clipPath></defs><metadata
     id="metadata61363"><rdf:RDF><cc:Work
         rdf:about=""><dc:format>image/svg+xml</dc:format><dc:type
           rdf:resource="http://purl.org/dc/dcmitype/StillImage" /></cc:Work></rdf:RDF></metadata><g
     id="layer1"
     inkscape:groupmode="layer"
     inkscape:label="Layer 1"><path
       style="fill:#0000ff;fill-opacity:1;fill-rule:evenodd;stroke:#000000 icc-color(sRGB-IEC61966-2, 0.1, 0, 0, 0);stroke-width:0.0679958;stroke-linecap:butt;stroke-linejoin:round;stroke-miterlimit:4;stroke-dasharray:none;stroke-opacity:1;paint-order:normal"
       d="M 72.602056,20.471353 H 71.338424 V 19.69851 l 1.210392,-0.69899 v -0.994926 l -0.35377,-0.752874 0.41031,-1.347258 v -1.079231 l -0.970744,-0.0018 0.008,0.704854 -0.501874,1.545168 0.397392,1.201987 -0.0909,0.218369 -1.169029,0.727478 v 1.764333 l 1.28228,0.76752 0.103437,0.30218 -0.0016,0.298187 -0.138131,0.201871 h -1.25071 v 0.907629 l 2.32963,5.3e-4 z"
       id="warding_falcon_m"
       sodipodi:nodetypes="ccccccccccccccccccccccc"
       inkscape:label="warding_falcon_m" /><path
       id="outline_falcon_m"
       clip-path="none"
       style="display:inline;fill:#c80000;fill-opacity:1;fill-rule:nonzero;stroke:#000000 icc-color(sRGB-IEC61966-2, 0.1, 0, 0, 0);stroke-width:0.178721;stroke-linecap:butt;stroke-linejoin:miter;stroke-miterlimit:4;stroke-dasharray:none;stroke-opacity:1"
       d="m 14.194053,22.618962 c 0,0.54169 -0.43897,0.98112 -0.98066,0.98112 h -2.70062 c -0.5421498,0 -0.9806598,-0.43943 -0.9806598,-0.98112 v -6.75823 c 0,-0.54077 0.43851,-0.98066 0.9806598,-0.98066 h 2.70062 c 0.54169,0 0.98066,0.43989 0.98066,0.98066 z m 49.767967,0.593535 2.27915,-2.31416 c 0.13726,-0.16628 0.21971,-0.38093 0.21971,-0.61308 0,-0.25565 -0.10041,-0.48826 -0.26255,-0.66053 l -4.5887,-4.65918 c -0.0967,-0.0982 -0.23987,-0.13798 -0.35906,-0.13796 l -26.77162,0.09898 c -0.0691,0.004 -0.13956,-0.012 -0.20451,-0.0484 -0.12575,-0.0691 -0.19761,-0.1999 -0.19899,-0.33487 l -0.005,-0.94749 c 0,-0.46984 -0.38093,-0.85123 -0.85168,-0.85123 l -0.0686,-0.006 h -3.43853 c -0.21189,0 -0.38462,-0.17181 -0.38462,-0.38554 L 29.07829,9.0586807 c -0.0719,-0.62322 -0.46201,-1.14925 -1.841097,-1.77477 -1.3791,-0.62552 -4.43947,-1.19439 -7.84115,-1.19439 -3.38879,0 -6.43948,0.58361 -8.56294,1.51544 l -0.0263,0.0161 c -0.58868,0.24551 -1.0188998,0.79457 -1.0948998,1.45233 l -0.25012,3.2529063 c 0.001,0.17457 -0.0605,0.39504 -0.23998,0.44588 l -0.98964,0.28028 c -0.39454,0.11175 -0.75151,0.61194 -0.81047,1.15179 v 10.10049 c 0.059,0.53984 0.42086,1.02298 0.81047,1.15132 0.0782,0.0258 0.84831,0.18801 0.98964,0.28029 0.15661,0.10225 0.24137,0.27176 0.23998,0.44588 l 0.25012,3.2529 c 0.076,0.65731 0.5062198,1.20637 1.0948998,1.45234 l 0.0263,0.0157 c 2.12346,0.93183 5.17415,1.51636 8.56294,1.51636 3.40168,0 6.46205,-0.56933 7.84115,-1.19485 1.379087,-0.62552 1.769237,-1.15201 1.841097,-1.77477 l 0.24873,-3.29436 c 0,-0.21235 0.17273,-0.38462 0.38462,-0.38462 h 1.95626 l 0.0677,-0.007 c 0.47075,0 0.85122,-0.38093 0.85122,-0.85168 l 0.006,-0.94796 c 9.2e-4,-0.1345 0.0728,-0.26486 0.19899,-0.33441 0.065,-0.0364 0.13542,-0.0521 0.2036,-0.0488 l 30.54018,-0.04368 c 0.13312,1e-5 0.28738,-0.184005 0.42608,-0.324835 z"
       inkscape:label="outline_falcon"
       sodipodi:nodetypes="sssssssssccscccccccccscccscccccccccsccccssccsccccccccc" /><path
       id="engrave_falcon_m"
       style="display:inline;fill:#006500;fill-opacity:0.708633;fill-rule:evenodd;stroke:#000000 icc-color(sRGB-IEC61966-2, 0.1, 0, 0, 0);stroke-width:0.0713962;stroke-linecap:butt;stroke-linejoin:miter;stroke-miterlimit:4;stroke-dasharray:none;stroke-opacity:1"
       d="m 19.05302,7.3344631 c -2.98252,0 -5.666262,0.514442 -7.535457,1.334802 l -0.02325,0.01395 c -0.518196,0.215572 -0.896459,0.69942 -0.963248,1.2779577 l -0.220142,3.3920412 c 0.0013,0.152461 -0.07363,0.302347 -0.211357,0.391707 l -0.5265823,0.136426 c -0.06909,0.01106 -0.138071,0.02916 -0.206706,0.05219 -0.481807,0.169971 -0.798546,0.596411 -0.850594,1.071769 v 8.437728 c 0.05205,0.475824 0.368787,0.902668 0.850594,1.071253 0.06864,0.02442 0.137615,0.04218 0.206706,0.05323 l 0.5265823,0.136426 c 0.137723,0.0889 0.212741,0.239186 0.211357,0.391191 l 0.220142,3.314009 c 0.06679,0.578078 0.445052,1.061407 0.963248,1.277442 l 0.02325,0.01447 c 1.869195,0.819906 4.552937,1.333252 7.535457,1.333252 2.710289,0 5.174183,-0.410123 7.004224,-1.099674 l 0.428397,-0.162264 c 0.542152,-0.267623 0.914673,-0.82579 0.914673,-1.470195 l 0.0052,-18.251082 c 0,-0.6439459 -0.371948,-1.2020569 -0.913639,-1.4696779 l -0.429948,-0.161747 c -0.204515,-0.07739 -0.416993,-0.15116 -0.637171,-0.221175 l -0.219625,-0.05064 c -1.711662,-0.514974 -3.842529,-0.813387 -6.152079,-0.813387 z m 0.320911,2.6380817 c 0.03823,0 0.07332,0.01542 0.09819,0.04031 l 2.06344,1.209746 c 0.03316,0.02487 0.05478,0.06493 0.05478,0.11007 l -0.0021,0.515731 c 0,0.06586 -0.04519,0.12111 -0.106454,0.135392 l -1.00614,0.254248 1.059884,0.621668 c 0.03317,0.02535 0.05478,0.06596 0.05478,0.111104 l -0.0026,0.514698 c 0,0.07738 -0.06214,0.139526 -0.139526,0.139526 -0.02392,0 -0.04685,-0.006 -0.06666,-0.01705 l -2.050521,-1.217497 c -0.05573,-0.01842 -0.09663,-0.07056 -0.09663,-0.132292 v -0.509013 c 0,-0.06863 0.04926,-0.125484 0.114205,-0.137459 l 1.109493,-0.189136 -1.127063,-0.669726 c -0.05574,-0.01752 -0.09663,-0.07017 -0.09663,-0.132809 v -0.508502 c 0,-0.07647 0.0626,-0.1390092 0.139527,-0.1390092 z m -3.859713,1.6944702 c 0.0889,0 0.172296,0.02738 0.241846,0.0739 l 1.683101,0.98857 c 0.295256,0.194382 0.490409,0.230746 0.490409,0.610299 v 0.01602 l 0.0016,-0.01602 v 3.86178 0.02274 c 0,0.05344 0.03128,0.09822 0.07596,0.11989 l 0.475423,0.314709 c 0.12759,0.076 0.239262,0.274653 0.239262,0.433565 l -0.02015,0.45372 0.0016,3.361035 c 0,0.239062 -0.194504,0.432531 -0.433566,0.432531 -0.06679,0 -0.129318,-0.01421 -0.185518,-0.04186 l -2.440161,-1.437122 -0.0093,-0.0052 c -0.330832,-0.185603 -0.554588,-0.539331 -0.554588,-0.945133 v -7.77937 -0.02997 c 0,-0.239522 0.194102,-0.434082 0.434082,-0.434082 z m 3.878316,1.244368 c 0.02441,0 0.04743,0.0064 0.0677,0.01654 l 2.050521,1.21853 c 0.05573,0.01842 0.0956,0.07103 0.0956,0.132292 l -0.0016,2.248958 c 0,0.07738 -0.06208,0.139526 -0.139009,0.139526 -0.02395,0 -0.04687,-0.006 -0.06666,-0.01705 l -2.051037,-1.217497 c -0.05574,-0.01843 -0.09612,-0.07068 -0.09612,-0.133325 l 0.0016,-2.248441 c 0,-0.07693 0.06254,-0.139527 0.139009,-0.139527 z m -3.460254,0.13901 c -0.05297,0 -0.09612,0.04321 -0.09612,0.09664 v 0.02997 6.173267 l 0.0026,0.02997 c 0,0.213628 0.115386,0.398579 0.285771,0.499711 l 1.566312,0.927592 c 0.01339,0.0059 0.02833,0.01085 0.04444,0.01085 0.05343,0 0.09715,-0.04418 0.09715,-0.09715 l -0.0036,-0.03772 v -2.243274 l -0.0016,-0.0186 c 0,-0.03547 -0.01898,-0.06667 -0.04754,-0.08372 l -0.415975,-0.311612 c -0.105942,-0.05067 -0.232544,-0.177703 -0.232544,-0.304375 l 5.16e-4,-0.05426 v -3.560506 l 0.0031,-0.02222 c 0,-0.200834 -0.102005,-0.377987 -0.256315,-0.481624 L 15.98964,13.068997 c -0.01566,-0.0115 -0.03571,-0.0186 -0.05736,-0.0186 z m 4.131014,1.224215 c -0.05025,0.0026 -0.09043,0.0448 -0.09043,0.09612 v 0.341064 c 0,0.05757 0.03507,0.106901 0.08527,0.127641 l 0.740523,0.433049 c 0.01474,0.0087 0.03222,0.0155 0.05064,0.0155 0.05205,0 0.09508,-0.04309 0.09508,-0.0956 v -0.348299 c 0,-0.05758 -0.03506,-0.106901 -0.08527,-0.127641 l -0.74104,-0.426847 c -0.01427,-0.0097 -0.03172,-0.01499 -0.05013,-0.01499 -0.0017,0 -0.0031,-8.4e-5 -0.0047,0 z m -0.701249,1.72806 c 0.03823,0 0.07336,0.01501 0.0987,0.04082 l 0.433049,0.29869 c 0.03316,0.02582 0.05478,0.06499 0.05478,0.110587 l -0.0047,1.247986 c 0,0.05758 0.03454,0.106622 0.08475,0.129191 l 0.07028,0.03462 0.624251,0.371554 c 0.02947,0.01656 0.04651,0.02636 0.04651,0.02636 0.01474,0.0092 0.03171,0.01447 0.05013,0.01447 0.05297,0 0.09612,-0.04257 0.09612,-0.09508 l -0.0046,-0.373104 -0.06253,-0.0677 -0.01912,-0.0155 c -0.01106,-0.01058 -0.01705,-0.0247 -0.01705,-0.04082 l 0.0026,-0.04599 0.0036,-0.606164 c 0,-0.07646 0.06254,-0.139527 0.139009,-0.139527 0.02947,0 0.057,0.0096 0.07958,0.02481 l 0.486275,0.262516 c 0.03317,0.02532 0.05478,0.06585 0.05478,0.110071 l -0.0026,2.286682 c 0,0.076 -0.06254,0.139527 -0.13901,0.139527 -0.02439,0 -0.04686,-0.0065 -0.06666,-0.01705 l -2.051037,-1.21853 c -0.05574,-0.01799 -0.09612,-0.07062 -0.09612,-0.132808 v -2.206584 c 0,-0.07785 0.06163,-0.139009 0.139009,-0.139009 z m -0.0026,3.79615 c 0.0272,0 0.05276,0.0068 0.07441,0.02067 0.0087,0.0055 1.335836,0.764294 1.335836,0.764294 0.01474,0.0083 0.0317,0.01395 0.05013,0.01395 0.05297,0 0.0956,-0.04315 0.0956,-0.09612 l 0.0078,-0.448035 c 0,-0.07692 0.06208,-0.139526 0.13901,-0.139526 0.02902,0 0.05649,0.0091 0.07906,0.02429 l 0.382405,0.208256 c 0.03316,0.02582 0.05478,0.06551 0.05478,0.111104 l -0.0047,1.943034 c 0,0.07693 -0.06208,0.139526 -0.139009,0.139526 -0.02442,0 -0.04685,-0.0069 -0.06666,-0.01705 l -2.051554,-1.218014 c -0.05574,-0.01796 -0.09612,-0.07062 -0.09612,-0.132808 v -1.035595 c 0,-0.076 0.06208,-0.137976 0.139009,-0.137976 z m 3.364136,0.105937 c 0.09443,0 0.181985,0.02914 0.254765,0.07751 l 2.528528,1.604553 c 0.224782,0.149695 0.37207,0.404747 0.37207,0.694014 l -5.17e-4,0.03772 v 3.786332 l 0.0067,0.02687 c 0,0.251036 -0.204693,0.455269 -0.455269,0.455269 -0.07001,0 -0.136367,-0.01584 -0.195337,-0.04393 l -2.373499,-1.390096 -0.01034,-0.0052 C 22.503415,24.953928 22.268844,24.5807 22.268844,24.154625 v -3.762561 l -5.16e-4,-0.03204 c 0,-0.251495 0.204233,-0.455269 0.455269,-0.455269 z m 0.40411,1.22008 c -0.05342,0 -0.09663,0.04326 -0.09663,0.09715 v 0.02997 2.600874 l 0.0026,0.03049 c 0,0.222023 0.123978,0.413021 0.305924,0.511597 l 1.641244,0.960148 c 0.01384,0.0078 0.02839,0.01085 0.04496,0.01085 0.05342,0 0.09663,-0.04314 0.09663,-0.09612 l -0.0041,-0.03824 v -2.654619 l 0.0016,-0.01085 c 0,-0.128971 -0.07067,-0.242127 -0.1757,-0.303857 l -1.759582,-1.118795 c -0.01564,-0.0115 -0.03519,-0.0186 -0.05684,-0.0186 z m -1.730127,1.623157 c 0.07738,0 0.139009,0.06255 0.139009,0.13901 l -5.16e-4,0.726054 c 0,0.05343 -0.03025,0.100993 -0.07493,0.124023 l -0.265617,0.04186 c -0.0433,0.02392 -0.07235,0.06996 -0.07235,0.122473 v 0.417029 c 0,0.05343 0.02905,0.09897 0.07235,0.122473 l 0.265617,0.230477 c 0.04468,0.02209 0.07493,0.0691 0.07493,0.12299 l 5.16e-4,0.725537 c 0,0.07692 -0.06163,0.139526 -0.139009,0.139526 -0.02395,0 -0.04685,-0.006 -0.06666,-0.01705 0,0 -2.078331,-1.788989 -2.090311,-1.796789 -0.03454,-0.02625 -0.05736,-0.06665 -0.05736,-0.113172 v -0.791166 c 0,-0.06817 0.04811,-0.124512 0.112138,-0.136942 l 2.06499,-0.05116 c 0.01199,-0.0028 0.02432,-0.0052 0.03721,-0.0052 z m -0.910539,0.997872 c -0.01617,10e-4 -0.03158,0.0071 -0.04392,0.01912 -0.01247,0.01241 -0.01927,0.02781 -0.02067,0.04392 l -0.0026,0.111105 c 0,0.04053 0.01787,0.07745 0.04547,0.102319 0.01106,0.01106 0.172083,0.120923 0.172083,0.120923 0.02212,0.0051 0.04766,3.23e-4 0.06563,-0.01809 0.01237,-0.01151 0.01927,-0.02728 0.02067,-0.04341 l 0.0026,-0.204122 c 0,-0.04053 -0.01785,-0.07755 -0.04547,-0.103353 -0.01151,-0.01059 -0.171566,-0.02636 -0.171566,-0.02636 -0.0072,-0.0018 -0.01482,-0.0025 -0.02222,-0.0021 z m -1.122929,1.007691 c 0.03869,0 0.07337,0.01553 0.0987,0.04134 l 0.433565,0.298173 c 0.03272,0.02582 0.05426,0.06643 0.05426,0.111104 l -0.0047,0.584461 c 0,0.05758 0.03501,0.107543 0.08475,0.129191 l 0.09508,0.04754 c 0.02254,0.0055 0.04766,-9.7e-5 0.06563,-0.01809 0.01241,-0.01151 0.01927,-0.02729 0.02067,-0.04341 l 0.0026,-0.398942 c 0,-0.07693 0.06208,-0.139526 0.13901,-0.139526 0.02902,0 0.05644,0.0092 0.07855,0.02532 l 0.371037,0.205672 c 0.03317,0.02487 0.05426,0.06499 0.05426,0.110588 l -0.0093,0.605648 c 0,0.05344 0.02955,0.09853 0.07286,0.122473 l 0.58136,0.324011 c 0.04468,0.02305 0.07545,0.07014 0.07545,0.124023 l 5.16e-4,1.113627 c 0,0.07739 -0.06208,0.139527 -0.139009,0.139527 -0.02439,0 -0.04737,-0.0055 -0.06718,-0.01705 l -2.051037,-1.218014 c -0.05574,-0.01704 -0.09612,-0.07057 -0.09612,-0.132292 l -4.62e-4,-1.875848 c 0,-0.07693 0.0626,-0.139526 0.139526,-0.139526 z"
       sodipodi:nodetypes="sccccccccccccccccsccccccccsscccccccccsccsscccssssccscccscccccscccscsssccccsccccssscccccsccccccccccccscssccsssccscsccccccccscccccccsccccsccssssccsccsccccsccssssccccccscccsccssscccccsccccccssccccssccccsccssccssccccccccccsscccccccccsccccccccsccccs" /></g></svg>
