<?xml version="1.0" encoding="UTF-8" standalone="no"?>
<!-- Created with Inkscape (http://www.inkscape.org/) -->

<svg
   width="210mm"
   height="297mm"
   viewBox="0 0 210 297"
   version="1.1"
   id="svg61366"
   inkscape:version="1.2.2 (b0a8486541, 2022-12-01)"
   sodipodi:docname="falcon.svg"
   xml:space="preserve"
   xmlns:inkscape="http://www.inkscape.org/namespaces/inkscape"
   xmlns:sodipodi="http://sodipodi.sourceforge.net/DTD/sodipodi-0.dtd"
   xmlns:xlink="http://www.w3.org/1999/xlink"
   xmlns="http://www.w3.org/2000/svg"
   xmlns:svg="http://www.w3.org/2000/svg"
   xmlns:rdf="http://www.w3.org/1999/02/22-rdf-syntax-ns#"
   xmlns:cc="http://creativecommons.org/ns#"
   xmlns:dc="http://purl.org/dc/elements/1.1/"><sodipodi:namedview
     id="base"
     pagecolor="#ffffff"
     bordercolor="#666666"
     borderopacity="1.0"
     inkscape:pageopacity="0.0"
     inkscape:pageshadow="2"
     inkscape:zoom="2.8284271"
     inkscape:cx="207.00551"
     inkscape:cy="123.39013"
     inkscape:document-units="mm"
     inkscape:current-layer="layer1"
     showgrid="false"
     inkscape:window-width="1418"
     inkscape:window-height="831"
     inkscape:window-x="312"
     inkscape:window-y="35"
     inkscape:window-maximized="0"
     inkscape:showpageshadow="2"
     inkscape:pagecheckerboard="0"
     inkscape:deskcolor="#d1d1d1" /><defs
     id="defs61360"><clipPath
       id="clipPath858"
       clipPathUnits="userSpaceOnUse"><path
         inkscape:connector-curvature="0"
         id="path856"
         d="m 173.421,372.542 h 265.158 v 171.88 H 173.421 Z" /></clipPath><clipPath
       id="clipPath794"
       clipPathUnits="userSpaceOnUse"><path
         inkscape:connector-curvature="0"
         id="path792"
         d="m 173.421,372.542 h 265.158 v 171.88 H 173.421 Z" /></clipPath><clipPath
       id="clipPath746"
       clipPathUnits="userSpaceOnUse"><path
         inkscape:connector-curvature="0"
         id="path744"
         d="m 173.421,372.542 h 265.158 v 171.88 H 173.421 Z" /></clipPath><clipPath
       id="clipPath706"
       clipPathUnits="userSpaceOnUse"><path
         inkscape:connector-curvature="0"
         id="path704"
         d="m 173.421,372.542 h 265.158 v 171.88 H 173.421 Z" /></clipPath><clipPath
       id="clipPath682"
       clipPathUnits="userSpaceOnUse"><path
         inkscape:connector-curvature="0"
         id="path680"
         d="m 173.421,372.542 h 265.158 v 171.88 H 173.421 Z" /></clipPath><clipPath
       id="clipPath642"
       clipPathUnits="userSpaceOnUse"><path
         inkscape:connector-curvature="0"
         id="path640"
         d="m 173.421,372.542 h 265.158 v 171.88 H 173.421 Z" /></clipPath><clipPath
       id="clipPath598"
       clipPathUnits="userSpaceOnUse"><path
         inkscape:connector-curvature="0"
         id="path596"
         d="m 173.421,372.542 h 265.158 v 171.88 H 173.421 Z" /></clipPath><clipPath
       id="clipPath512"
       clipPathUnits="userSpaceOnUse"><path
         inkscape:connector-curvature="0"
         id="path510"
         d="m 173.421,372.542 h 265.158 v 171.88 H 173.421 Z" /></clipPath><clipPath
       id="clipPath462"
       clipPathUnits="userSpaceOnUse"><path
         inkscape:connector-curvature="0"
         id="path460"
         d="m 173.421,372.542 h 265.158 v 171.88 H 173.421 Z" /></clipPath><clipPath
       id="clipPath422"
       clipPathUnits="userSpaceOnUse"><path
         inkscape:connector-curvature="0"
         id="path420"
         d="m 173.421,372.542 h 265.158 v 171.88 H 173.421 Z" /></clipPath><clipPath
       id="clipPath"
       clipPathUnits="userSpaceOnUse"><use
         xlink:href="#path856"
         transform="matrix(1.000000,0.000000,0.000000,1.000000,-418.418800,-429.328000)"
         id="use" /></clipPath><clipPath
       id="clipPathc"
       clipPathUnits="userSpaceOnUse"><use
         xlink:href="#path856"
         transform="matrix(1.000000,0.000000,0.000000,1.000000,-418.553300,-425.383600)"
         id="uset" /></clipPath><clipPath
       id="clipPathN"
       clipPathUnits="userSpaceOnUse"><use
         xlink:href="#path856"
         transform="matrix(1.000000,0.000000,0.000000,1.000000,-284.260700,-540.054300)"
         id="use7" /></clipPath><clipPath
       id="clipPathv"
       clipPathUnits="userSpaceOnUse"><use
         xlink:href="#path856"
         transform="matrix(1.000000,0.000000,0.000000,1.000000,-284.260700,-540.054300)"
         id="useY" /></clipPath><clipPath
       id="clipPath7"
       clipPathUnits="userSpaceOnUse"><use
         xlink:href="#path704"
         transform="matrix(1.000000,0.000000,0.000000,1.000000,-414.257100,-388.156500)"
         id="useF" /></clipPath><clipPath
       id="clipPathW"
       clipPathUnits="userSpaceOnUse"><use
         xlink:href="#path704"
         transform="matrix(1.000000,0.000000,0.000000,1.000000,-414.257100,-388.156500)"
         id="useB" /></clipPath><clipPath
       id="clipPath5"
       clipPathUnits="userSpaceOnUse"><use
         xlink:href="#path680"
         transform="matrix(1.000000,0.000000,0.000000,1.000000,-356.251500,-404.632800)"
         id="usej" /></clipPath><clipPath
       id="clipPathr"
       clipPathUnits="userSpaceOnUse"><use
         xlink:href="#path680"
         transform="matrix(1.000000,0.000000,0.000000,1.000000,-364.468000,-397.413000)"
         id="useW" /></clipPath><clipPath
       id="clipPathH"
       clipPathUnits="userSpaceOnUse"><use
         xlink:href="#path680"
         transform="matrix(1.000000,0.000000,0.000000,1.000000,-369.243100,-389.494900)"
         id="useWw" /></clipPath><clipPath
       id="clipPathU"
       clipPathUnits="userSpaceOnUse"><use
         xlink:href="#path460"
         transform="matrix(1.000000,0.000000,0.000000,1.000000,-175.904500,-404.632800)"
         id="use0" /></clipPath><clipPath
       id="clipPathR"
       clipPathUnits="userSpaceOnUse"><use
         xlink:href="#path460"
         transform="matrix(1.000000,0.000000,0.000000,1.000000,-184.127400,-397.413000)"
         id="usek" /></clipPath><clipPath
       id="clipPathD"
       clipPathUnits="userSpaceOnUse"><use
         xlink:href="#path460"
         transform="matrix(1.000000,0.000000,0.000000,1.000000,-188.898000,-389.494900)"
         id="useV" /></clipPath><clipPath
       id="clipPathUo"
       clipPathUnits="userSpaceOnUse"><use
         xlink:href="#path640"
         transform="matrix(1.000000,0.000000,0.000000,1.000000,-369.440200,-387.795400)"
         id="usee" /></clipPath><clipPath
       id="clipPathV"
       clipPathUnits="userSpaceOnUse"><use
         xlink:href="#path640"
         transform="matrix(1.000000,0.000000,0.000000,1.000000,-369.440200,-387.795400)"
         id="useR" /></clipPath><clipPath
       id="clipPathK"
       clipPathUnits="userSpaceOnUse"><use
         xlink:href="#path596"
         transform="matrix(1.000000,0.000000,0.000000,1.000000,-288.283800,-423.593500)"
         id="useV0" /></clipPath><clipPath
       id="clipPathu"
       clipPathUnits="userSpaceOnUse"><use
         xlink:href="#path596"
         transform="matrix(1.000000,0.000000,0.000000,1.000000,-368.961300,-423.866100)"
         id="usey" /></clipPath><clipPath
       id="clipPathO"
       clipPathUnits="userSpaceOnUse"><use
         xlink:href="#path596"
         transform="matrix(1.000000,0.000000,0.000000,1.000000,-292.268100,-425.675200)"
         id="usel" /></clipPath><clipPath
       id="clipPathI"
       clipPathUnits="userSpaceOnUse"><use
         xlink:href="#path596"
         transform="matrix(1.000000,0.000000,0.000000,1.000000,-311.165200,-404.632800)"
         id="useI" /></clipPath><clipPath
       id="clipPath5g"
       clipPathUnits="userSpaceOnUse"><use
         xlink:href="#path596"
         transform="matrix(1.000000,0.000000,0.000000,1.000000,-319.382600,-397.413000)"
         id="usep" /></clipPath><clipPath
       id="clipPathd"
       clipPathUnits="userSpaceOnUse"><use
         xlink:href="#path596"
         transform="matrix(1.000000,0.000000,0.000000,1.000000,-324.159100,-389.494900)"
         id="usew" /></clipPath><clipPath
       id="clipPatht"
       clipPathUnits="userSpaceOnUse"><use
         xlink:href="#path596"
         transform="matrix(1.000000,0.000000,0.000000,1.000000,-324.133400,-387.687700)"
         id="useo" /></clipPath><clipPath
       id="clipPathy"
       clipPathUnits="userSpaceOnUse"><use
         xlink:href="#path596"
         transform="matrix(1.000000,0.000000,0.000000,1.000000,-324.133400,-387.687700)"
         id="useYP" /></clipPath><clipPath
       id="clipPathj"
       clipPathUnits="userSpaceOnUse"><use
         xlink:href="#path420"
         transform="matrix(1.000000,0.000000,0.000000,1.000000,-188.925200,-387.869100)"
         id="usec" /></clipPath><clipPath
       id="clipPathq"
       clipPathUnits="userSpaceOnUse"><use
         xlink:href="#path420"
         transform="matrix(1.000000,0.000000,0.000000,1.000000,-188.925200,-387.869100)"
         id="usepC" /></clipPath><clipPath
       id="clipPathp"
       clipPathUnits="userSpaceOnUse"><use
         xlink:href="#path792"
         transform="matrix(1.000000,0.000000,0.000000,1.000000,-326.003200,-456.442000)"
         id="usef" /></clipPath><clipPath
       id="clipPathqO"
       clipPathUnits="userSpaceOnUse"><use
         xlink:href="#path792"
         transform="matrix(1.000000,0.000000,0.000000,1.000000,-326.003200,-456.442000)"
         id="useeQ" /></clipPath><clipPath
       id="clipPathql"
       clipPathUnits="userSpaceOnUse"><use
         xlink:href="#path792"
         transform="matrix(1.000000,0.000000,0.000000,1.000000,-237.258900,-473.456200)"
         id="usei" /></clipPath><clipPath
       id="clipPathqf"
       clipPathUnits="userSpaceOnUse"><use
         xlink:href="#path792"
         transform="matrix(1.000000,0.000000,0.000000,1.000000,-237.258900,-473.456200)"
         id="useq" /></clipPath><clipPath
       id="clipPathv6"
       clipPathUnits="userSpaceOnUse"><use
         xlink:href="#path792"
         transform="matrix(1.000000,0.000000,0.000000,1.000000,-328.674600,-444.151300)"
         id="usea" /></clipPath><clipPath
       id="clipPathyP"
       clipPathUnits="userSpaceOnUse"><use
         xlink:href="#path792"
         transform="matrix(1.000000,0.000000,0.000000,1.000000,-328.809000,-425.369400)"
         id="useO" /></clipPath><clipPath
       id="clipPathx"
       clipPathUnits="userSpaceOnUse"><use
         xlink:href="#path792"
         transform="matrix(1.000000,0.000000,0.000000,1.000000,-237.421000,-444.151300)"
         id="useln" /></clipPath><clipPath
       id="clipPathb"
       clipPathUnits="userSpaceOnUse"><use
         xlink:href="#path792"
         transform="matrix(1.000000,0.000000,0.000000,1.000000,-237.555500,-425.369400)"
         id="useX" /></clipPath><clipPath
       id="clipPathg"
       clipPathUnits="userSpaceOnUse"><use
         xlink:href="#path792"
         transform="matrix(1.000000,0.000000,0.000000,1.000000,-266.078900,-404.632800)"
         id="usez" /></clipPath><clipPath
       id="clipPathH3"
       clipPathUnits="userSpaceOnUse"><use
         xlink:href="#path792"
         transform="matrix(1.000000,0.000000,0.000000,1.000000,-274.300000,-397.413000)"
         id="useBQ" /></clipPath><clipPath
       id="clipPath1"
       clipPathUnits="userSpaceOnUse"><use
         xlink:href="#path792"
         transform="matrix(1.000000,0.000000,0.000000,1.000000,-279.070600,-389.494900)"
         id="useE" /></clipPath><clipPath
       id="clipPathK1"
       clipPathUnits="userSpaceOnUse"><use
         xlink:href="#path792"
         transform="matrix(1.000000,0.000000,0.000000,1.000000,-279.089900,-387.850700)"
         id="use3" /></clipPath><clipPath
       id="clipPath3"
       clipPathUnits="userSpaceOnUse"><use
         xlink:href="#path792"
         transform="matrix(1.000000,0.000000,0.000000,1.000000,-279.089900,-387.850700)"
         id="usecI" /></clipPath><clipPath
       id="clipPaths"
       clipPathUnits="userSpaceOnUse"><use
         xlink:href="#path744"
         transform="matrix(1.000000,0.000000,0.000000,1.000000,-401.337300,-404.632800)"
         id="user" /></clipPath><clipPath
       id="clipPath2"
       clipPathUnits="userSpaceOnUse"><use
         xlink:href="#path744"
         transform="matrix(1.000000,0.000000,0.000000,1.000000,-409.553700,-397.413000)"
         id="useT" /></clipPath><clipPath
       id="clipPathG"
       clipPathUnits="userSpaceOnUse"><use
         xlink:href="#path744"
         transform="matrix(1.000000,0.000000,0.000000,1.000000,-414.328900,-389.494900)"
         id="useU" /></clipPath><clipPath
       id="clipPathOS"
       clipPathUnits="userSpaceOnUse"><use
         xlink:href="#path510"
         transform="matrix(1.000000,0.000000,0.000000,1.000000,-245.062300,-481.617500)"
         id="use4" /></clipPath><clipPath
       id="clipPath0"
       clipPathUnits="userSpaceOnUse"><use
         xlink:href="#path510"
         transform="matrix(1.000000,0.000000,0.000000,1.000000,-325.679900,-481.890200)"
         id="useWl" /></clipPath><clipPath
       id="clipPathyY"
       clipPathUnits="userSpaceOnUse"><use
         xlink:href="#path510"
         transform="matrix(1.000000,0.000000,0.000000,1.000000,-249.046200,-483.699300)"
         id="useEx" /></clipPath><clipPath
       id="clipPathe"
       clipPathUnits="userSpaceOnUse"><use
         xlink:href="#path510"
         transform="matrix(1.000000,0.000000,0.000000,1.000000,-197.278000,-423.593500)"
         id="usekN" /></clipPath><clipPath
       id="clipPathw"
       clipPathUnits="userSpaceOnUse"><use
         xlink:href="#path510"
         transform="matrix(1.000000,0.000000,0.000000,1.000000,-277.895700,-423.866100)"
         id="useh" /></clipPath><clipPath
       id="clipPathN6"
       clipPathUnits="userSpaceOnUse"><use
         xlink:href="#path510"
         transform="matrix(1.000000,0.000000,0.000000,1.000000,-201.261900,-425.675200)"
         id="useS" /></clipPath><clipPath
       id="clipPathD1"
       clipPathUnits="userSpaceOnUse"><use
         xlink:href="#path510"
         transform="matrix(1.000000,0.000000,0.000000,1.000000,-220.990800,-404.632800)"
         id="useOs" /></clipPath><clipPath
       id="clipPath3O"
       clipPathUnits="userSpaceOnUse"><use
         xlink:href="#path510"
         transform="matrix(1.000000,0.000000,0.000000,1.000000,-233.984300,-389.494900)"
         id="useg" /></clipPath><clipPath
       id="clipPathi"
       clipPathUnits="userSpaceOnUse"><use
         xlink:href="#path510"
         transform="matrix(1.000000,0.000000,0.000000,1.000000,-229.213800,-397.413000)"
         id="useH" /></clipPath><clipPath
       id="clipPathx5"
       clipPathUnits="userSpaceOnUse"><use
         xlink:href="#path510"
         transform="matrix(1.000000,0.000000,0.000000,1.000000,-233.981100,-387.890300)"
         id="useZ" /></clipPath><clipPath
       id="clipPath6"
       clipPathUnits="userSpaceOnUse"><use
         xlink:href="#path510"
         transform="matrix(1.000000,0.000000,0.000000,1.000000,-233.981100,-387.890300)"
         id="useY2" /></clipPath><clipPath
       id="clipPathj-3"
       clipPathUnits="userSpaceOnUse"><use
         xlink:href="#path420"
         transform="matrix(1.000000,0.000000,0.000000,1.000000,-188.925200,-387.869100)"
         id="usec-6" /></clipPath><clipPath
       id="clipPathj-6"
       clipPathUnits="userSpaceOnUse"><use
         xlink:href="#path420"
         transform="matrix(1.000000,0.000000,0.000000,1.000000,-188.925200,-387.869100)"
         id="usec-2" /></clipPath><clipPath
       id="clipPathj-6-1"
       clipPathUnits="userSpaceOnUse"><use
         xlink:href="#path420"
         transform="matrix(1.000000,0.000000,0.000000,1.000000,-188.925200,-387.869100)"
         id="usec-2-2" /></clipPath><clipPath
       id="clipPathN-1"
       clipPathUnits="userSpaceOnUse"><use
         xlink:href="#path856"
         transform="matrix(1.000000,0.000000,0.000000,1.000000,-284.260700,-540.054300)"
         id="use7-8" /></clipPath></defs><metadata
     id="metadata61363"><rdf:RDF><cc:Work
         rdf:about=""><dc:format>image/svg+xml</dc:format><dc:type
           rdf:resource="http://purl.org/dc/dcmitype/StillImage" /></cc:Work></rdf:RDF></metadata><g
     id="layer1"
     inkscape:groupmode="layer"
     inkscape:label="Layer 1"><path
       style="fill:#0000ff;fill-opacity:1;fill-rule:evenodd;stroke:#000000 icc-color(sRGB-IEC61966-2, 0.1, 0, 0, 0);stroke-width:0.05;stroke-linecap:butt;stroke-linejoin:round;stroke-miterlimit:4;stroke-dasharray:none;stroke-opacity:1;paint-order:normal"
       d="M 74.337488,20.582393 H 73.073856 V 19.80955 l 1.210392,-0.69899 v -0.994926 l -0.35377,-0.752874 0.41031,-1.347258 v -1.079231 l -0.970744,-0.0018 0.008,0.704854 -0.501874,1.545168 0.397392,1.201987 -0.0909,0.218369 -1.169029,0.727478 v 1.764333 l 1.28228,0.76752 0.103437,0.30218 -0.0016,0.298187 -0.138131,0.201871 h -1.25071 v 0.907629 l 2.32963,5.3e-4 z"
       id="warding_falcon_m"
       sodipodi:nodetypes="ccccccccccccccccccccccc"
       inkscape:label="warding_falcon_m" /><path
       id="outline_falcon_m"
       clip-path="none"
       style="display:inline;fill:#c80000;fill-opacity:1;fill-rule:nonzero;stroke:#000000 icc-color(sRGB-IEC61966-2, 0.1, 0, 0, 0);stroke-width:0.0495627;stroke-linecap:butt;stroke-linejoin:miter;stroke-miterlimit:4;stroke-dasharray:none;stroke-opacity:1"
       d="m 14.393,22.589537 c 0,0.536952 -0.43513,0.972539 -0.972083,0.972539 h -2.677 c -0.537408,0 -0.9720832,-0.435587 -0.9720832,-0.972539 v -6.699123 c 0,-0.53604 0.4346752,-0.972083 0.9720832,-0.972083 h 2.677 c 0.536953,0 0.972083,0.436043 0.972083,0.972083 z m 49.332697,0.588344 2.259216,-2.293921 c 0.13606,-0.164826 0.217789,-0.377598 0.217789,-0.607718 0,-0.253414 -0.09953,-0.483989 -0.260254,-0.654753 l -4.548567,-4.618431 c -0.09586,-0.09734 -0.237772,-0.136773 -0.35592,-0.136753 l -26.537475,0.09811 c -0.0685,0.004 -0.13834,-0.01189 -0.202722,-0.04798 -0.12465,-0.0685 -0.195881,-0.198152 -0.197249,-0.331942 l -0.005,-0.939203 c 0,-0.465731 -0.377598,-0.843785 -0.844231,-0.843785 l -0.068,-0.0059 H 29.77487 c -0.210036,0 -0.381256,-0.170307 -0.381256,-0.382168 L 29.14706,9.1478535 C 29.075789,8.5300842 28.689091,8.0086549 27.322065,7.3886057 25.955027,6.7685565 22.921423,6.2046618 19.549494,6.2046618 c -3.359152,0 -6.383161,0.5785058 -8.488049,1.502186 l -0.02607,0.015959 C 10.451844,7.9661697 10.025387,8.5104277 9.9500514,9.1624349 L 9.7021189,12.386891 c 9.913e-4,0.173043 -0.059971,0.391585 -0.2378811,0.441981 L 8.4832532,13.1067 c -0.3910894,0.110773 -0.7449373,0.606588 -0.8033816,1.141717 v 10.012151 c 0.058484,0.535118 0.4171791,1.014033 0.8033816,1.14125 0.077516,0.02557 0.8408907,0.186366 0.9809846,0.277839 0.1552403,0.101356 0.239259,0.269383 0.2378811,0.44198 l 0.2479325,3.22445 c 0.075336,0.651562 0.5017926,1.19582 1.0853236,1.439638 l 0.02607,0.01556 c 2.104888,0.92368 5.128897,1.503098 8.488049,1.503098 3.371929,0 6.405533,-0.564351 7.772571,-1.1844 1.367026,-0.620049 1.753763,-1.141934 1.824995,-1.759248 l 0.246554,-3.265547 c 0,-0.210493 0.17122,-0.381256 0.381256,-0.381256 h 1.939151 l 0.06711,-0.0069 c 0.466633,0 0.843775,-0.377599 0.843775,-0.844231 l 0.0059,-0.93967 c 9.12e-4,-0.133323 0.07216,-0.262543 0.197249,-0.331485 0.06443,-0.03608 0.134236,-0.05164 0.20182,-0.04837 l 30.273075,-0.0433 c 0.131956,10e-6 0.284867,-0.182396 0.422354,-0.321994 z"
       inkscape:label="outline_falcon"
       sodipodi:nodetypes="sssssssssccscccccccccscccscccccccccsccccssccsccccccccc" /><path
       id="engrave_falcon_m"
       style="display:inline;fill:#006500;fill-opacity:0.708633;fill-rule:evenodd;stroke:#000000 icc-color(sRGB-IEC61966-2, 0.1, 0, 0, 0);stroke-width:0.0707718;stroke-linecap:butt;stroke-linejoin:miter;stroke-miterlimit:4;stroke-dasharray:none;stroke-opacity:1"
       d="m 19.209471,7.438716 c -2.956435,0 -5.616705,0.5099426 -7.469552,1.3231278 l -0.02305,0.013828 c -0.513664,0.2136866 -0.888618,0.6933028 -0.954823,1.2667802 l -0.218217,3.362375 c 0.0013,0.151127 -0.07299,0.299703 -0.209508,0.388281 l -0.5219771,0.135233 c -0.068486,0.01096 -0.1368635,0.0289 -0.2048982,0.05173 -0.4775931,0.168485 -0.7915619,0.591195 -0.8431547,1.062396 v 8.363931 c 0.051595,0.471663 0.3655616,0.894774 0.8431547,1.061884 0.06804,0.02421 0.1364114,0.04181 0.2048982,0.05276 l 0.5219771,0.135232 c 0.136518,0.08812 0.21088,0.237094 0.209508,0.38777 l 0.218217,3.285025 c 0.06621,0.573022 0.441159,1.052124 0.954823,1.266269 l 0.02305,0.01434 c 1.852847,0.812735 4.513117,1.321591 7.469552,1.321591 2.686585,0 5.128929,-0.406536 6.942965,-1.090056 l 0.42465,-0.160845 c 0.53741,-0.265282 0.906673,-0.818568 0.906673,-1.457337 l 0.0052,-18.091458 c 0,-0.6383137 -0.368695,-1.1915435 -0.905648,-1.4568239 L 26.157078,8.5144288 C 25.954352,8.4377156 25.743732,8.3645908 25.52548,8.2951882 L 25.307775,8.2449911 C 23.611084,7.734521 21.498853,7.4387179 19.209502,7.4387179 Z m 0.318104,2.615009 c 0.0379,0 0.07268,0.01529 0.09733,0.03996 l 2.045393,1.199166 c 0.03287,0.02465 0.0543,0.06436 0.0543,0.109107 l -0.0021,0.511221 c 0,0.06528 -0.04479,0.120051 -0.105523,0.134208 l -0.997341,0.252024 1.050615,0.616231 c 0.03288,0.02513 0.0543,0.06538 0.0543,0.110132 l -0.0026,0.510197 c 0,0.0767 -0.0616,0.138305 -0.138305,0.138305 -0.02371,0 -0.04644,-0.0059 -0.06608,-0.0169 l -2.032587,-1.206848 c -0.05524,-0.01826 -0.09578,-0.06994 -0.09578,-0.131135 v -0.504562 c 0,-0.06803 0.04883,-0.124386 0.113206,-0.136256 l 1.099789,-0.187482 -1.117206,-0.663869 c -0.05525,-0.01737 -0.09578,-0.06956 -0.09578,-0.131647 v -0.504055 c 0,-0.0758 0.06205,-0.137793 0.138306,-0.137793 z m -3.825956,1.67965 c 0.08812,0 0.170789,0.02714 0.239731,0.07325 l 1.668381,0.979924 c 0.292673,0.192682 0.486119,0.228728 0.486119,0.604961 v 0.01588 l 0.0016,-0.01588 v 3.828005 0.02254 c 0,0.05297 0.03101,0.09736 0.0753,0.118842 l 0.471265,0.311956 c 0.126474,0.07534 0.237169,0.272251 0.237169,0.429773 l -0.01997,0.449752 0.0016,3.331639 c 0,0.236972 -0.192803,0.428749 -0.429774,0.428749 -0.06621,0 -0.128187,-0.01409 -0.183896,-0.04149 l -2.418819,-1.424553 -0.0092,-0.0052 C 15.493133,20.65759 15.271334,20.306955 15.271334,19.904702 v -7.711331 -0.02971 c 0,-0.237427 0.192404,-0.430286 0.430285,-0.430286 z m 3.844396,1.233485 c 0.0242,0 0.04702,0.0063 0.06711,0.01639 l 2.032587,1.207873 c 0.05524,0.01826 0.09476,0.07041 0.09476,0.131135 l -0.0016,2.229289 c 0,0.0767 -0.06154,0.138305 -0.137793,0.138305 -0.02374,0 -0.04646,-0.0059 -0.06608,-0.0169 L 19.5019,15.466103 c -0.05525,-0.01827 -0.09528,-0.07006 -0.09528,-0.132159 l 0.0016,-2.228776 c 0,-0.07626 0.06199,-0.138307 0.137793,-0.138307 z m -3.42999,0.137794 c -0.05251,0 -0.09528,0.04283 -0.09528,0.0958 v 0.02971 6.119276 l 0.0026,0.02971 c 0,0.21176 0.114377,0.395094 0.283271,0.495341 l 1.552613,0.919479 c 0.01327,0.0058 0.02808,0.01076 0.04405,0.01076 0.05296,0 0.0963,-0.04379 0.0963,-0.0963 l -0.0036,-0.03739 v -2.223654 l -0.0016,-0.01844 c 0,-0.03516 -0.01881,-0.06609 -0.04713,-0.08299 l -0.412337,-0.308887 c -0.105015,-0.05023 -0.23051,-0.176149 -0.23051,-0.301713 l 5.12e-4,-0.05379 V 14.1522 l 0.0031,-0.02203 c 0,-0.199077 -0.101113,-0.374681 -0.254074,-0.477412 l -0.881061,-0.529661 c -0.01552,-0.0114 -0.0354,-0.01844 -0.05686,-0.01844 z m 4.094884,1.213508 c -0.04981,0.0026 -0.08964,0.04441 -0.08964,0.09528 v 0.338081 c 0,0.05707 0.03476,0.105966 0.08452,0.126524 l 0.734046,0.429262 c 0.01461,0.0086 0.03194,0.01536 0.0502,0.01536 0.05159,0 0.09425,-0.04271 0.09425,-0.09476 v -0.345252 c 0,-0.05708 -0.03475,-0.105966 -0.08452,-0.126525 l -0.734559,-0.423114 c -0.01414,-0.0096 -0.03144,-0.01486 -0.04969,-0.01486 -0.0017,0 -0.0031,-8.3e-5 -0.0047,0 z m -0.695116,1.712947 c 0.0379,0 0.07272,0.01488 0.09784,0.04046 l 0.429261,0.296077 c 0.03287,0.02559 0.0543,0.06442 0.0543,0.10962 l -0.0047,1.237071 c 0,0.05708 0.03424,0.10569 0.08401,0.128061 l 0.06966,0.03432 0.618792,0.368304 c 0.02921,0.01641 0.0461,0.02613 0.0461,0.02613 0.01461,0.0091 0.03143,0.01434 0.04969,0.01434 0.05251,0 0.09528,-0.0422 0.09528,-0.09425 l -0.0046,-0.36984 -0.06198,-0.06711 -0.01895,-0.01536 c -0.01096,-0.01049 -0.0169,-0.02448 -0.0169,-0.04046 l 0.0026,-0.04559 0.0036,-0.600863 c 0,-0.07579 0.06199,-0.138307 0.137793,-0.138307 0.02921,0 0.0565,0.0095 0.07888,0.02459 l 0.482022,0.26022 c 0.03288,0.0251 0.0543,0.06527 0.0543,0.109109 l -0.0026,2.266682 c 0,0.07534 -0.06199,0.138307 -0.137794,0.138307 -0.02418,0 -0.04645,-0.0064 -0.06608,-0.0169 l -2.033099,-1.207873 c -0.05525,-0.01783 -0.09528,-0.07 -0.09528,-0.131646 V 16.16892 c 0,-0.07717 0.06109,-0.137793 0.137793,-0.137793 z m -0.0026,3.762949 c 0.02696,0 0.0523,0.0067 0.07376,0.02049 0.0086,0.0055 1.324153,0.757609 1.324153,0.757609 0.01461,0.0082 0.03142,0.01383 0.04969,0.01383 0.05251,0 0.09476,-0.04277 0.09476,-0.09528 l 0.0077,-0.444117 c 0,-0.07625 0.06154,-0.138305 0.137794,-0.138305 0.02877,0 0.056,0.009 0.07837,0.02408 l 0.37906,0.206435 c 0.03287,0.02559 0.0543,0.06494 0.0543,0.110132 l -0.0047,1.92604 c 0,0.07626 -0.06154,0.138306 -0.137793,0.138306 -0.02421,0 -0.04644,-0.0068 -0.06608,-0.0169 l -2.033611,-1.207361 c -0.05525,-0.0178 -0.09528,-0.07 -0.09528,-0.131646 v -1.026538 c 0,-0.07533 0.06154,-0.136769 0.137793,-0.136769 z m 3.334713,0.10501 c 0.0936,0 0.180393,0.02888 0.252537,0.07683 l 2.506413,1.59052 c 0.222816,0.148386 0.368816,0.401207 0.368816,0.687944 l -5.12e-4,0.03739 v 3.753217 l 0.0066,0.02663 c 0,0.24884 -0.202903,0.451287 -0.451287,0.451287 -0.0694,0 -0.135174,-0.0157 -0.193629,-0.04355 l -2.35274,-1.377938 -0.01025,-0.0052 c -0.344229,-0.192173 -0.576749,-0.562137 -0.576749,-0.984485 v -3.729654 l -5.11e-4,-0.03176 c 0,-0.249295 0.202446,-0.451287 0.451287,-0.451287 z m 0.400576,1.209409 c -0.05295,0 -0.09579,0.04288 -0.09579,0.0963 v 0.02971 2.578127 l 0.0026,0.03022 c 0,0.220081 0.122894,0.409408 0.303248,0.507122 l 1.62689,0.951751 c 0.01372,0.0077 0.02814,0.01075 0.04457,0.01075 0.05295,0 0.09578,-0.04276 0.09578,-0.09528 l -0.0041,-0.0379 v -2.631402 l 0.0016,-0.01075 c 0,-0.127843 -0.07005,-0.240009 -0.174164,-0.301199 l -1.744192,-1.10901 c -0.0155,-0.0114 -0.03488,-0.01844 -0.05634,-0.01844 z m -1.714996,1.608961 c 0.0767,0 0.137794,0.062 0.137794,0.137794 l -5.12e-4,0.719704 c 0,0.05296 -0.02998,0.10011 -0.07428,0.122939 l -0.263293,0.04149 c -0.04292,0.02371 -0.07172,0.06935 -0.07172,0.121402 v 0.413382 c 0,0.05296 0.0288,0.0981 0.07172,0.121402 l 0.263293,0.228461 c 0.04429,0.0219 0.07428,0.0685 0.07428,0.121914 l 5.12e-4,0.719192 c 0,0.07625 -0.06109,0.138306 -0.137794,0.138306 -0.02374,0 -0.04644,-0.0059 -0.06608,-0.0169 0,0 -2.060154,-1.773343 -2.072029,-1.781075 -0.03424,-0.02602 -0.05686,-0.06607 -0.05686,-0.112182 v -0.784246 c 0,-0.06757 0.04769,-0.123423 0.111157,-0.135745 l 2.04693,-0.05071 c 0.01188,-0.0028 0.02411,-0.0052 0.03688,-0.0052 z m -0.902575,0.989145 c -0.01603,9.91e-4 -0.0313,0.007 -0.04354,0.01895 -0.01236,0.0123 -0.0191,0.02757 -0.02049,0.04353 l -0.0026,0.110134 c 0,0.04018 0.01771,0.07677 0.04507,0.101424 0.01096,0.01096 0.170578,0.119865 0.170578,0.119865 0.02193,0.0051 0.04724,3.2e-4 0.06506,-0.01793 0.01226,-0.01141 0.0191,-0.02704 0.02049,-0.04303 l 0.0026,-0.202337 c 0,-0.04018 -0.01769,-0.07687 -0.04507,-0.102449 -0.01141,-0.0105 -0.170065,-0.02613 -0.170065,-0.02613 -0.0071,-0.0018 -0.01469,-0.0025 -0.02203,-0.0021 z m -1.113108,0.998877 c 0.03835,0 0.07273,0.0154 0.09784,0.04098 l 0.429773,0.295565 c 0.03243,0.02559 0.05379,0.06585 0.05379,0.110132 l -0.0047,0.57935 c 0,0.05708 0.0347,0.106602 0.08401,0.128061 l 0.09425,0.04712 c 0.02234,0.0055 0.04724,-9.6e-5 0.06506,-0.01793 0.0123,-0.01141 0.0191,-0.02705 0.02049,-0.04303 l 0.0026,-0.395453 c 0,-0.07626 0.06154,-0.138306 0.137794,-0.138306 0.02877,0 0.05595,0.0091 0.07786,0.0251 l 0.367792,0.203873 c 0.03288,0.02465 0.05379,0.06442 0.05379,0.109621 l -0.0092,0.600351 c 0,0.05297 0.02929,0.09767 0.07222,0.121402 l 0.576275,0.321177 c 0.04429,0.02285 0.07479,0.06953 0.07479,0.122938 l 5.12e-4,1.103887 c 0,0.07671 -0.06154,0.138307 -0.137793,0.138307 -0.02418,0 -0.04696,-0.0055 -0.06659,-0.0169 l -2.033098,-1.207361 c -0.05525,-0.01689 -0.09528,-0.06995 -0.09528,-0.131135 l -4.58e-4,-1.859442 c 0,-0.07626 0.06205,-0.138306 0.138306,-0.138306 z"
       sodipodi:nodetypes="sccccccccccccccccsccccccccsscccccccccsccsscccssssccscccscccccscccscsssccccsccccssscccccsccccccccccccscssccsssccscsccccccccscccccccsccccsccssssccsccsccccsccssssccccccscccsccssscccccsccccccssccccssccccsccssccssccccccccccsscccccccccsccccccccsccccs" /></g></svg>
