<?xml version="1.0" encoding="UTF-8" standalone="no"?>
<!-- Created with Inkscape (http://www.inkscape.org/) -->

<svg
   width="210mm"
   height="297mm"
   viewBox="0 0 210 297"
   version="1.1"
   id="svg61366"
   inkscape:version="1.2.2 (b0a8486541, 2022-12-01)"
   sodipodi:docname="Lockwood.svg"
   xml:space="preserve"
   xmlns:inkscape="http://www.inkscape.org/namespaces/inkscape"
   xmlns:sodipodi="http://sodipodi.sourceforge.net/DTD/sodipodi-0.dtd"
   xmlns:xlink="http://www.w3.org/1999/xlink"
   xmlns="http://www.w3.org/2000/svg"
   xmlns:svg="http://www.w3.org/2000/svg"
   xmlns:rdf="http://www.w3.org/1999/02/22-rdf-syntax-ns#"
   xmlns:cc="http://creativecommons.org/ns#"
   xmlns:dc="http://purl.org/dc/elements/1.1/"><sodipodi:namedview
     id="base"
     pagecolor="#ffffff"
     bordercolor="#666666"
     borderopacity="1.0"
     inkscape:pageopacity="0.0"
     inkscape:pageshadow="2"
     inkscape:zoom="1.4142136"
     inkscape:cx="87.681241"
     inkscape:cy="180.31223"
     inkscape:document-units="mm"
     inkscape:current-layer="layer1"
     showgrid="false"
     inkscape:window-width="1920"
     inkscape:window-height="1029"
     inkscape:window-x="0"
     inkscape:window-y="27"
     inkscape:window-maximized="1"
     inkscape:showpageshadow="2"
     inkscape:pagecheckerboard="0"
     inkscape:deskcolor="#d1d1d1" /><defs
     id="defs61360"><clipPath
       id="clipPath858"
       clipPathUnits="userSpaceOnUse"><path
         inkscape:connector-curvature="0"
         id="path856"
         d="m 173.421,372.542 h 265.158 v 171.88 H 173.421 Z" /></clipPath><clipPath
       id="clipPath794"
       clipPathUnits="userSpaceOnUse"><path
         inkscape:connector-curvature="0"
         id="path792"
         d="m 173.421,372.542 h 265.158 v 171.88 H 173.421 Z" /></clipPath><clipPath
       id="clipPath746"
       clipPathUnits="userSpaceOnUse"><path
         inkscape:connector-curvature="0"
         id="path744"
         d="m 173.421,372.542 h 265.158 v 171.88 H 173.421 Z" /></clipPath><clipPath
       id="clipPath706"
       clipPathUnits="userSpaceOnUse"><path
         inkscape:connector-curvature="0"
         id="path704"
         d="m 173.421,372.542 h 265.158 v 171.88 H 173.421 Z" /></clipPath><clipPath
       id="clipPath682"
       clipPathUnits="userSpaceOnUse"><path
         inkscape:connector-curvature="0"
         id="path680"
         d="m 173.421,372.542 h 265.158 v 171.88 H 173.421 Z" /></clipPath><clipPath
       id="clipPath642"
       clipPathUnits="userSpaceOnUse"><path
         inkscape:connector-curvature="0"
         id="path640"
         d="m 173.421,372.542 h 265.158 v 171.88 H 173.421 Z" /></clipPath><clipPath
       id="clipPath598"
       clipPathUnits="userSpaceOnUse"><path
         inkscape:connector-curvature="0"
         id="path596"
         d="m 173.421,372.542 h 265.158 v 171.88 H 173.421 Z" /></clipPath><clipPath
       id="clipPath512"
       clipPathUnits="userSpaceOnUse"><path
         inkscape:connector-curvature="0"
         id="path510"
         d="m 173.421,372.542 h 265.158 v 171.88 H 173.421 Z" /></clipPath><clipPath
       id="clipPath462"
       clipPathUnits="userSpaceOnUse"><path
         inkscape:connector-curvature="0"
         id="path460"
         d="m 173.421,372.542 h 265.158 v 171.88 H 173.421 Z" /></clipPath><clipPath
       id="clipPath422"
       clipPathUnits="userSpaceOnUse"><path
         inkscape:connector-curvature="0"
         id="path420"
         d="m 173.421,372.542 h 265.158 v 171.88 H 173.421 Z" /></clipPath><clipPath
       id="clipPath"
       clipPathUnits="userSpaceOnUse"><use
         xlink:href="#path856"
         transform="matrix(1.000000,0.000000,0.000000,1.000000,-418.418800,-429.328000)"
         id="use" /></clipPath><clipPath
       id="clipPathc"
       clipPathUnits="userSpaceOnUse"><use
         xlink:href="#path856"
         transform="matrix(1.000000,0.000000,0.000000,1.000000,-418.553300,-425.383600)"
         id="uset" /></clipPath><clipPath
       id="clipPathN"
       clipPathUnits="userSpaceOnUse"><use
         xlink:href="#path856"
         transform="matrix(1.000000,0.000000,0.000000,1.000000,-284.260700,-540.054300)"
         id="use7" /></clipPath><clipPath
       id="clipPathv"
       clipPathUnits="userSpaceOnUse"><use
         xlink:href="#path856"
         transform="matrix(1.000000,0.000000,0.000000,1.000000,-284.260700,-540.054300)"
         id="useY" /></clipPath><clipPath
       id="clipPath7"
       clipPathUnits="userSpaceOnUse"><use
         xlink:href="#path704"
         transform="matrix(1.000000,0.000000,0.000000,1.000000,-414.257100,-388.156500)"
         id="useF" /></clipPath><clipPath
       id="clipPathW"
       clipPathUnits="userSpaceOnUse"><use
         xlink:href="#path704"
         transform="matrix(1.000000,0.000000,0.000000,1.000000,-414.257100,-388.156500)"
         id="useB" /></clipPath><clipPath
       id="clipPath5"
       clipPathUnits="userSpaceOnUse"><use
         xlink:href="#path680"
         transform="matrix(1.000000,0.000000,0.000000,1.000000,-356.251500,-404.632800)"
         id="usej" /></clipPath><clipPath
       id="clipPathr"
       clipPathUnits="userSpaceOnUse"><use
         xlink:href="#path680"
         transform="matrix(1.000000,0.000000,0.000000,1.000000,-364.468000,-397.413000)"
         id="useW" /></clipPath><clipPath
       id="clipPathH"
       clipPathUnits="userSpaceOnUse"><use
         xlink:href="#path680"
         transform="matrix(1.000000,0.000000,0.000000,1.000000,-369.243100,-389.494900)"
         id="useWw" /></clipPath><clipPath
       id="clipPathU"
       clipPathUnits="userSpaceOnUse"><use
         xlink:href="#path460"
         transform="matrix(1.000000,0.000000,0.000000,1.000000,-175.904500,-404.632800)"
         id="use0" /></clipPath><clipPath
       id="clipPathR"
       clipPathUnits="userSpaceOnUse"><use
         xlink:href="#path460"
         transform="matrix(1.000000,0.000000,0.000000,1.000000,-184.127400,-397.413000)"
         id="usek" /></clipPath><clipPath
       id="clipPathD"
       clipPathUnits="userSpaceOnUse"><use
         xlink:href="#path460"
         transform="matrix(1.000000,0.000000,0.000000,1.000000,-188.898000,-389.494900)"
         id="useV" /></clipPath><clipPath
       id="clipPathUo"
       clipPathUnits="userSpaceOnUse"><use
         xlink:href="#path640"
         transform="matrix(1.000000,0.000000,0.000000,1.000000,-369.440200,-387.795400)"
         id="usee" /></clipPath><clipPath
       id="clipPathV"
       clipPathUnits="userSpaceOnUse"><use
         xlink:href="#path640"
         transform="matrix(1.000000,0.000000,0.000000,1.000000,-369.440200,-387.795400)"
         id="useR" /></clipPath><clipPath
       id="clipPathK"
       clipPathUnits="userSpaceOnUse"><use
         xlink:href="#path596"
         transform="matrix(1.000000,0.000000,0.000000,1.000000,-288.283800,-423.593500)"
         id="useV0" /></clipPath><clipPath
       id="clipPathu"
       clipPathUnits="userSpaceOnUse"><use
         xlink:href="#path596"
         transform="matrix(1.000000,0.000000,0.000000,1.000000,-368.961300,-423.866100)"
         id="usey" /></clipPath><clipPath
       id="clipPathO"
       clipPathUnits="userSpaceOnUse"><use
         xlink:href="#path596"
         transform="matrix(1.000000,0.000000,0.000000,1.000000,-292.268100,-425.675200)"
         id="usel" /></clipPath><clipPath
       id="clipPathI"
       clipPathUnits="userSpaceOnUse"><use
         xlink:href="#path596"
         transform="matrix(1.000000,0.000000,0.000000,1.000000,-311.165200,-404.632800)"
         id="useI" /></clipPath><clipPath
       id="clipPath5g"
       clipPathUnits="userSpaceOnUse"><use
         xlink:href="#path596"
         transform="matrix(1.000000,0.000000,0.000000,1.000000,-319.382600,-397.413000)"
         id="usep" /></clipPath><clipPath
       id="clipPathd"
       clipPathUnits="userSpaceOnUse"><use
         xlink:href="#path596"
         transform="matrix(1.000000,0.000000,0.000000,1.000000,-324.159100,-389.494900)"
         id="usew" /></clipPath><clipPath
       id="clipPatht"
       clipPathUnits="userSpaceOnUse"><use
         xlink:href="#path596"
         transform="matrix(1.000000,0.000000,0.000000,1.000000,-324.133400,-387.687700)"
         id="useo" /></clipPath><clipPath
       id="clipPathy"
       clipPathUnits="userSpaceOnUse"><use
         xlink:href="#path596"
         transform="matrix(1.000000,0.000000,0.000000,1.000000,-324.133400,-387.687700)"
         id="useYP" /></clipPath><clipPath
       id="clipPathj"
       clipPathUnits="userSpaceOnUse"><use
         xlink:href="#path420"
         transform="matrix(1.000000,0.000000,0.000000,1.000000,-188.925200,-387.869100)"
         id="usec" /></clipPath><clipPath
       id="clipPathq"
       clipPathUnits="userSpaceOnUse"><use
         xlink:href="#path420"
         transform="matrix(1.000000,0.000000,0.000000,1.000000,-188.925200,-387.869100)"
         id="usepC" /></clipPath><clipPath
       id="clipPathp"
       clipPathUnits="userSpaceOnUse"><use
         xlink:href="#path792"
         transform="matrix(1.000000,0.000000,0.000000,1.000000,-326.003200,-456.442000)"
         id="usef" /></clipPath><clipPath
       id="clipPathqO"
       clipPathUnits="userSpaceOnUse"><use
         xlink:href="#path792"
         transform="matrix(1.000000,0.000000,0.000000,1.000000,-326.003200,-456.442000)"
         id="useeQ" /></clipPath><clipPath
       id="clipPathql"
       clipPathUnits="userSpaceOnUse"><use
         xlink:href="#path792"
         transform="matrix(1.000000,0.000000,0.000000,1.000000,-237.258900,-473.456200)"
         id="usei" /></clipPath><clipPath
       id="clipPathqf"
       clipPathUnits="userSpaceOnUse"><use
         xlink:href="#path792"
         transform="matrix(1.000000,0.000000,0.000000,1.000000,-237.258900,-473.456200)"
         id="useq" /></clipPath><clipPath
       id="clipPathv6"
       clipPathUnits="userSpaceOnUse"><use
         xlink:href="#path792"
         transform="matrix(1.000000,0.000000,0.000000,1.000000,-328.674600,-444.151300)"
         id="usea" /></clipPath><clipPath
       id="clipPathyP"
       clipPathUnits="userSpaceOnUse"><use
         xlink:href="#path792"
         transform="matrix(1.000000,0.000000,0.000000,1.000000,-328.809000,-425.369400)"
         id="useO" /></clipPath><clipPath
       id="clipPathx"
       clipPathUnits="userSpaceOnUse"><use
         xlink:href="#path792"
         transform="matrix(1.000000,0.000000,0.000000,1.000000,-237.421000,-444.151300)"
         id="useln" /></clipPath><clipPath
       id="clipPathb"
       clipPathUnits="userSpaceOnUse"><use
         xlink:href="#path792"
         transform="matrix(1.000000,0.000000,0.000000,1.000000,-237.555500,-425.369400)"
         id="useX" /></clipPath><clipPath
       id="clipPathg"
       clipPathUnits="userSpaceOnUse"><use
         xlink:href="#path792"
         transform="matrix(1.000000,0.000000,0.000000,1.000000,-266.078900,-404.632800)"
         id="usez" /></clipPath><clipPath
       id="clipPathH3"
       clipPathUnits="userSpaceOnUse"><use
         xlink:href="#path792"
         transform="matrix(1.000000,0.000000,0.000000,1.000000,-274.300000,-397.413000)"
         id="useBQ" /></clipPath><clipPath
       id="clipPath1"
       clipPathUnits="userSpaceOnUse"><use
         xlink:href="#path792"
         transform="matrix(1.000000,0.000000,0.000000,1.000000,-279.070600,-389.494900)"
         id="useE" /></clipPath><clipPath
       id="clipPathK1"
       clipPathUnits="userSpaceOnUse"><use
         xlink:href="#path792"
         transform="matrix(1.000000,0.000000,0.000000,1.000000,-279.089900,-387.850700)"
         id="use3" /></clipPath><clipPath
       id="clipPath3"
       clipPathUnits="userSpaceOnUse"><use
         xlink:href="#path792"
         transform="matrix(1.000000,0.000000,0.000000,1.000000,-279.089900,-387.850700)"
         id="usecI" /></clipPath><clipPath
       id="clipPaths"
       clipPathUnits="userSpaceOnUse"><use
         xlink:href="#path744"
         transform="matrix(1.000000,0.000000,0.000000,1.000000,-401.337300,-404.632800)"
         id="user" /></clipPath><clipPath
       id="clipPath2"
       clipPathUnits="userSpaceOnUse"><use
         xlink:href="#path744"
         transform="matrix(1.000000,0.000000,0.000000,1.000000,-409.553700,-397.413000)"
         id="useT" /></clipPath><clipPath
       id="clipPathG"
       clipPathUnits="userSpaceOnUse"><use
         xlink:href="#path744"
         transform="matrix(1.000000,0.000000,0.000000,1.000000,-414.328900,-389.494900)"
         id="useU" /></clipPath><clipPath
       id="clipPathOS"
       clipPathUnits="userSpaceOnUse"><use
         xlink:href="#path510"
         transform="matrix(1.000000,0.000000,0.000000,1.000000,-245.062300,-481.617500)"
         id="use4" /></clipPath><clipPath
       id="clipPath0"
       clipPathUnits="userSpaceOnUse"><use
         xlink:href="#path510"
         transform="matrix(1.000000,0.000000,0.000000,1.000000,-325.679900,-481.890200)"
         id="useWl" /></clipPath><clipPath
       id="clipPathyY"
       clipPathUnits="userSpaceOnUse"><use
         xlink:href="#path510"
         transform="matrix(1.000000,0.000000,0.000000,1.000000,-249.046200,-483.699300)"
         id="useEx" /></clipPath><clipPath
       id="clipPathe"
       clipPathUnits="userSpaceOnUse"><use
         xlink:href="#path510"
         transform="matrix(1.000000,0.000000,0.000000,1.000000,-197.278000,-423.593500)"
         id="usekN" /></clipPath><clipPath
       id="clipPathw"
       clipPathUnits="userSpaceOnUse"><use
         xlink:href="#path510"
         transform="matrix(1.000000,0.000000,0.000000,1.000000,-277.895700,-423.866100)"
         id="useh" /></clipPath><clipPath
       id="clipPathN6"
       clipPathUnits="userSpaceOnUse"><use
         xlink:href="#path510"
         transform="matrix(1.000000,0.000000,0.000000,1.000000,-201.261900,-425.675200)"
         id="useS" /></clipPath><clipPath
       id="clipPathD1"
       clipPathUnits="userSpaceOnUse"><use
         xlink:href="#path510"
         transform="matrix(1.000000,0.000000,0.000000,1.000000,-220.990800,-404.632800)"
         id="useOs" /></clipPath><clipPath
       id="clipPath3O"
       clipPathUnits="userSpaceOnUse"><use
         xlink:href="#path510"
         transform="matrix(1.000000,0.000000,0.000000,1.000000,-233.984300,-389.494900)"
         id="useg" /></clipPath><clipPath
       id="clipPathi"
       clipPathUnits="userSpaceOnUse"><use
         xlink:href="#path510"
         transform="matrix(1.000000,0.000000,0.000000,1.000000,-229.213800,-397.413000)"
         id="useH" /></clipPath><clipPath
       id="clipPathx5"
       clipPathUnits="userSpaceOnUse"><use
         xlink:href="#path510"
         transform="matrix(1.000000,0.000000,0.000000,1.000000,-233.981100,-387.890300)"
         id="useZ" /></clipPath><clipPath
       id="clipPath6"
       clipPathUnits="userSpaceOnUse"><use
         xlink:href="#path510"
         transform="matrix(1.000000,0.000000,0.000000,1.000000,-233.981100,-387.890300)"
         id="useY2" /></clipPath><clipPath
       id="clipPathj-3"
       clipPathUnits="userSpaceOnUse"><use
         xlink:href="#path420"
         transform="matrix(1.000000,0.000000,0.000000,1.000000,-188.925200,-387.869100)"
         id="usec-6" /></clipPath><clipPath
       id="clipPathj-6"
       clipPathUnits="userSpaceOnUse"><use
         xlink:href="#path420"
         transform="matrix(1.000000,0.000000,0.000000,1.000000,-188.925200,-387.869100)"
         id="usec-2" /></clipPath><clipPath
       id="clipPathj-6-1"
       clipPathUnits="userSpaceOnUse"><use
         xlink:href="#path420"
         transform="matrix(1.000000,0.000000,0.000000,1.000000,-188.925200,-387.869100)"
         id="usec-2-2" /></clipPath><clipPath
       id="clipPathN-1"
       clipPathUnits="userSpaceOnUse"><use
         xlink:href="#path856"
         transform="matrix(1.000000,0.000000,0.000000,1.000000,-284.260700,-540.054300)"
         id="use7-8" /></clipPath><clipPath
       clipPathUnits="userSpaceOnUse"
       id="clipPath2987"><rect
         style="fill:#0000ff;fill-opacity:0.802114;stroke-width:0.264583"
         id="rect2989"
         width="37.958271"
         height="41.382767"
         x="166.63963"
         y="44.149513" /></clipPath></defs><metadata
     id="metadata61363"><rdf:RDF><cc:Work
         rdf:about=""><dc:format>image/svg+xml</dc:format><dc:type
           rdf:resource="http://purl.org/dc/dcmitype/StillImage" /></cc:Work></rdf:RDF></metadata><g
     id="layer1"
     inkscape:groupmode="layer"
     inkscape:label="Layer 1"><path
       style="display:inline;fill:#0000ff;fill-opacity:0.802114;stroke-width:0.0524268"
       d="m 31.119183,42.835284 c 0,0 -4.7e-4,-3.001546 0.0039,-6.736842 0.0059,-4.654528 0.01361,-4.314198 -0.110901,-4.821624 -1.149865,-4.687765 -7.43387,-5.122696 -9.302801,-0.643878 -0.58831,1.409848 -1.720113,2.576953 -3.108628,3.205588 -0.223153,0.101023 -0.535494,0.243253 -0.694092,0.316061 -2.013183,0.924215 -3.079057,3.630993 -2.195084,5.574406 0.03279,0.07205 0.08507,0.190053 0.116178,0.262137 0.416904,0.966077 1.407586,1.863076 2.550755,2.30954 0.671153,0.262117 1.54074,0.860482 2.088442,1.437064 0.588614,0.619668 0.872299,1.061706 1.343403,2.093327 1.620686,3.548983 6.335707,3.94632 8.525994,0.718498 0.471741,-0.695198 0.811561,-2.033853 0.802702,-2.547779 l -0.02007,-1.166498 z"
       id="engrave_LW5"
       sodipodi:nodetypes="cccsssscssssscc"
       inkscape:label="path729" /><path
       id="warding_LW5"
       style="fill:#000000;fill-opacity:0.622889;stroke-width:0.0408383"
       d="m 75.958869,33.723828 -0.02916,1.929438 -0.02956,1.929831 0.339306,0.316056 c 0.186639,0.173911 0.3532,0.31629 0.370046,0.31645 0.05658,5.49e-4 0.03632,1.226699 -0.02049,1.242942 -0.02806,0.008 -0.188143,0.04526 -0.355464,0.08315 -0.622693,0.140859 -0.64614,0.197293 -0.68019,1.62481 -0.02437,1.021716 -0.01994,1.236033 -0.01994,1.236033 0.405638,0.07915 0.66439,0.119793 1.077667,0.121378 0.462271,-9.15e-4 0.803195,-0.03615 1.255007,-0.133978 0,0 -0.0011,0.02088 -0.0011,-0.171227 v -0.156452 l -0.234876,-0.01971 c -0.397551,-0.03287 -0.92405,-0.111175 -1.020679,-0.151723 -0.09043,-0.03798 -0.09182,-0.04983 -0.09182,-0.769253 0,-0.805785 -0.0048,-0.791862 0.265218,-0.84137 0.442513,-0.08119 0.552884,-0.10064 0.827183,-0.146206 l 0.295958,-0.04926 v -0.699492 c 0,-0.864055 -0.112025,-1.250092 -0.487483,-1.679587 -0.05887,-0.06741 -0.166134,-0.199512 -0.23842,-0.293594 l -0.131625,-0.171032 -0.02719,-1.758799 -0.0272,-1.758405 h -0.51739 z"
       sodipodi:nodetypes="ccccsccscccscccscccsccccccc" /><path
       id="outline_LW5"
       style="display:inline;fill:#ff0000;fill-opacity:0.667054;stroke-width:0.0524268"
       inkscape:highlight-color="#ff0000"
       d="m 67.730278,39.391309 c -0.105516,0.171305 -0.230026,0.38225 -0.276695,0.468755 -0.0467,0.08654 -0.125008,0.204464 -0.174105,0.262137 -0.04905,0.05766 -0.428449,0.61208 -0.842987,1.232022 l -0.753723,1.127182 -14.346227,0.01322 -14.346226,0.01322 -2.16e-4,0.458642 c -5.19e-4,1.202682 -0.569778,1.343315 -2.385226,0.58924 -1.098624,-0.456331 -1.512623,-0.481129 -2.031327,-0.12166 -0.348896,0.241793 -0.442498,0.429076 -0.729159,1.459013 -0.826129,2.968182 -2.784579,4.58734 -5.5486,4.58734 -2.466062,0 -4.215887,-1.196818 -5.318329,-3.637553 -0.594527,-1.316246 -1.532674,-2.22185 -2.970541,-2.867511 -4.279008,-1.921434 -4.525994,-7.579976 -0.414538,-9.497083 1.348142,-0.628616 1.710538,-0.863595 2.327083,-1.508923 0.440834,-0.461422 0.806265,-0.989504 1.007567,-1.456017 0.40143,-0.930344 0.722982,-1.436252 1.340956,-2.109804 0.346361,-0.377512 1.172441,-0.955592 1.641832,-1.148945 0.144178,-0.05943 0.297518,-0.127671 0.340771,-0.151755 0.04327,-0.02408 0.24379,-0.08468 0.445631,-0.134612 0.20184,-0.04993 0.452298,-0.11284 0.556561,-0.139723 0.612394,-0.157922 2.537539,0.01106 3.029809,0.265887 0.04591,0.02379 0.22192,0.105232 0.391081,0.181007 1.515404,0.678819 2.660188,2.118086 3.129315,3.934288 0.473033,1.831307 1.069714,2.215026 2.487345,1.599568 0.05766,-0.02506 0.246405,-0.09702 0.419414,-0.160017 0.173009,-0.06295 0.503294,-0.184787 0.733976,-0.270694 0.980919,-0.365304 1.510019,-0.0987 1.53003,0.770933 0.0049,0.230682 0.01126,0.448901 0.01312,0.484948 0.0029,0.05228 2.696529,0.06589 13.280547,0.06706 l 13.27709,0.002 0.393206,0.434177 c 0.216261,0.238798 0.827832,0.904577 1.359057,1.479514 0.531215,0.574937 1.183601,1.281266 1.449752,1.569611 0.266141,0.288345 0.582936,0.630437 0.70398,0.760184 0.54357,0.582701 0.607498,0.9128 0.279788,1.444828 z m -44.86898,-2.104978 c -0.690743,-2.057681 -3.214458,-2.672983 -4.715451,-1.149649 -1.600812,1.624621 -0.738215,4.318604 1.534475,4.792371 0.464907,0.09692 0.78877,0.06491 1.468363,-0.145117 1.327553,-0.410269 2.170854,-2.132516 1.712613,-3.497605 z" /></g></svg>
