<?xml version="1.0" encoding="UTF-8" standalone="no"?>
<svg
   width="210mm"
   height="297mm"
   viewBox="0 0 209.99792 296.99706"
   version="1.1"
   id="svg14868"
   inkscape:version="1.2.2 (b0a8486541, 2022-12-01)"
   sodipodi:docname="medeco.svg"
   xml:space="preserve"
   xmlns:inkscape="http://www.inkscape.org/namespaces/inkscape"
   xmlns:sodipodi="http://sodipodi.sourceforge.net/DTD/sodipodi-0.dtd"
   xmlns="http://www.w3.org/2000/svg"
   xmlns:svg="http://www.w3.org/2000/svg"
   xmlns:rdf="http://www.w3.org/1999/02/22-rdf-syntax-ns#"
   xmlns:cc="http://creativecommons.org/ns#"
   xmlns:dc="http://purl.org/dc/elements/1.1/"><sodipodi:namedview
     id="base"
     pagecolor="#ffffff"
     bordercolor="#666666"
     borderopacity="1.0"
     inkscape:pageopacity="0.0"
     inkscape:pageshadow="2"
     inkscape:zoom="0.70710678"
     inkscape:cx="634.98189"
     inkscape:cy="387.49452"
     inkscape:document-units="in"
     inkscape:current-layer="layer1"
     showgrid="true"
     inkscape:window-width="1920"
     inkscape:window-height="1029"
     inkscape:window-x="0"
     inkscape:window-y="27"
     inkscape:window-maximized="1"
     inkscape:document-rotation="0"
     inkscape:showpageshadow="0"
     inkscape:pagecheckerboard="0"
     inkscape:deskcolor="#d1d1d1"
     showguides="true"
     inkscape:lockguides="false"><inkscape:grid
       id="grid54"
       units="in"
       originx="0"
       originy="0"
       spacingx="2.4129761"
       spacingy="0.25399749"
       empcolor="#0099e5"
       empopacity="0.54509804"
       color="#0099e5"
       opacity="0.14901961"
       empspacing="5"
       dotted="false"
       gridanglex="30"
       gridanglez="30"
       visible="true"
       enabled="true" /><sodipodi:guide
       position="33.782,303.34706"
       orientation="-1,0"
       id="guide72"
       inkscape:locked="false"
       inkscape:label="Shoulders"
       inkscape:color="rgb(192,28,40)" /><sodipodi:guide
       position="-21.717,23.94706"
       orientation="0,1"
       id="guide144"
       inkscape:locked="false"
       inkscape:label="Blade Root"
       inkscape:color="rgb(192,28,40)" /><sodipodi:guide
       position="-21.717,49.34706"
       orientation="0,1"
       id="guide145"
       inkscape:label="Blade Root"
       inkscape:locked="false"
       inkscape:color="rgb(192,28,40)" /><sodipodi:guide
       position="-21.717,74.74706"
       orientation="0,1"
       id="guide146"
       inkscape:label="Blade Root"
       inkscape:locked="false"
       inkscape:color="rgb(192,28,40)" /><sodipodi:guide
       position="-21.717,277.94706"
       orientation="0,1"
       id="guide147"
       inkscape:label="Blade Root"
       inkscape:locked="false"
       inkscape:color="rgb(192,28,40)" /><sodipodi:guide
       position="-21.717,252.54706"
       orientation="0,1"
       id="guide148"
       inkscape:label="Blade Root"
       inkscape:locked="false"
       inkscape:color="rgb(192,28,40)" /><sodipodi:guide
       position="-21.717,227.14706"
       orientation="0,1"
       id="guide149"
       inkscape:label="Blade Root"
       inkscape:locked="false"
       inkscape:color="rgb(192,28,40)" /><sodipodi:guide
       position="-21.717,201.74706"
       orientation="0,1"
       id="guide150"
       inkscape:label="Blade Root"
       inkscape:locked="false"
       inkscape:color="rgb(192,28,40)" /><sodipodi:guide
       position="-21.717,176.34706"
       orientation="0,1"
       id="guide151"
       inkscape:label="Blade Root"
       inkscape:locked="false"
       inkscape:color="rgb(192,28,40)" /><sodipodi:guide
       position="-21.717,150.94706"
       orientation="0,1"
       id="guide152"
       inkscape:label="Blade Root"
       inkscape:locked="false"
       inkscape:color="rgb(192,28,40)" /><sodipodi:guide
       position="-21.717,125.54706"
       orientation="0,1"
       id="guide153"
       inkscape:label="Blade Root"
       inkscape:locked="false"
       inkscape:color="rgb(192,28,40)" /><sodipodi:guide
       position="-21.717,100.14706"
       orientation="0,1"
       id="guide154"
       inkscape:label="Blade Root"
       inkscape:locked="false"
       inkscape:color="rgb(192,28,40)" /><sodipodi:guide
       position="101.346,303.34706"
       orientation="-1,0"
       id="guide155"
       inkscape:label="Shoulders"
       inkscape:locked="false"
       inkscape:color="rgb(192,28,40)" /><sodipodi:guide
       position="171.323,303.34706"
       orientation="-1,0"
       id="guide156"
       inkscape:label="Shoulders"
       inkscape:locked="false"
       inkscape:color="rgb(192,28,40)" /></sodipodi:namedview><defs
     id="defs14862" /><metadata
     id="metadata14865"><rdf:RDF><cc:Work
         rdf:about=""><dc:format>image/svg+xml</dc:format><dc:type
           rdf:resource="http://purl.org/dc/dcmitype/StillImage" /></cc:Work></rdf:RDF></metadata><g
     inkscape:label="Layer 1"
     inkscape:groupmode="layer"
     id="layer1"
     style="display:inline"><path
   id="warding_1515"
   style="fill:#0000ff;stroke:#000000;stroke-width:0.0881944;stroke-linecap:round;stroke-linejoin:round;stroke-miterlimit:10;stroke-dasharray:none;stroke-opacity:1"
   d="m 134.98624,40.385997 -0.254,-0.423334 -0.0847,-0.254 V 39.28533 l 0.0847,-0.423333 0.0847,-0.169334 0.0847,-0.423333 v -1.016 l -0.254,-0.677333 h -1.778 l 0.33867,0.846666 0.0847,0.338667 -0.0847,0.423333 -0.33867,0.677334 v 0.846666 l 0.254,0.762 0.42334,0.508 0.16933,0.508 -0.254,0.423334 -0.33867,0.254 -0.16933,0.338666 -0.0847,0.338667 v 1.27 l 0.254,0.338667 h 1.86267 l 0.16933,-0.169334 v -0.254 l -0.0847,-0.254 -0.16933,-0.169333 -0.59267,-0.08467 -0.16933,-0.169333 -0.0847,-0.254 0.0847,-0.254 0.762,-0.677333 0.16933,-0.338667 0.0847,-0.338667 v -0.423333 z"
   inkscape:connector-curvature="0"
   sodipodi:nodetypes="cccccccccccccccccccccccccccccccccccccc"
   inkscape:label="#warding_1515" />

<path
   id="warding_1517"
   style="fill:#0000ff;stroke:#000000;stroke-width:0.0881944;stroke-linecap:round;stroke-linejoin:round;stroke-miterlimit:10;stroke-dasharray:none;stroke-opacity:1"
   d="m 65.267007,142.91729 v 0.42333 l 0.08463,0.16933 0.931368,0.93134 0.08467,0.254 -0.08467,0.254 -0.169333,0.16933 -0.592667,0.16933 -0.169368,0.0847 -0.08463,0.254 v 0.254 l 0.169333,0.16934 h 1.862667 l 0.254,-0.254 v -0.93134 l -0.0847,-0.33866 -0.677299,-0.762 -0.169333,-0.33867 0.169333,-0.33867 0.338667,-0.508 0.08463,-0.59266 -0.253966,-0.508 -0.254,-0.33867 v -0.59267 l 0.507966,-0.93133 v -1.27 h -1.608666 v 1.69333 l -0.254,0.33867 0.0847,0.67733 0.423299,0.508 0.0847,0.42334 -0.254,0.42333 -0.254,0.254 z"
   inkscape:connector-curvature="0"
   sodipodi:nodetypes="ccccccccccccccccccccccccccccccccccc"
   inkscape:label="#warding_1517" />
<path
   id="warding_1542"
   style="fill:#0000ff;stroke:#000000;stroke-width:0.0881944;stroke-linecap:round;stroke-linejoin:round;stroke-miterlimit:10;stroke-dasharray:none;stroke-opacity:1"
   d="m 132.75736,65.108717 v -0.67733 l 0.1693,-0.508 0.3387,-0.67734 h 1.60867 v 0.67734 l -0.254,0.67733 v 0.42333 l 0.1693,0.42334 0.25399,0.42333 0.16937,0.508 v 0.508 l -0.0847,0.33867 -0.254,0.33866 -0.67733,0.59267 -0.0847,0.254 0.0847,0.254 0.16933,0.16933 0.59267,0.16934 0.16933,0.0847 0.0847,0.254 v 0.254 l -0.254,0.254 h -1.86266 l -0.254,-0.33866 v -1.27 l 0.0846,-0.42334 0.254,-0.33866 0.3387,-0.33867 0.16933,-0.33867 -0.0847,-0.33866 -0.59267,-0.67734 z"
   inkscape:connector-curvature="0"
   sodipodi:nodetypes="ccccccccccccccccccccccccccccccccc"
   inkscape:label="#warding_1542" />
<path
   id="warding_1518"
   style="fill:#0000ff;stroke:#000000;stroke-width:0.0881944;stroke-linecap:round;stroke-linejoin:round;stroke-miterlimit:10;stroke-dasharray:none;stroke-opacity:1"
   d="m 67.31177,19.049985 0.169333,-0.16933 0.08467,-0.16934 v -0.254 l -0.169333,-0.33866 -0.169334,-0.16934 -0.08467,-0.254 v -0.33866 l 0.254,-0.254 0.169333,-0.33867 -0.254,-0.33867 -0.423333,-0.254 -0.169334,-0.254 0.08467,-0.254 0.677333,-0.762 v -0.254 l -0.08467,-0.16933 -0.508,-0.59267 v -1.35466 h -1.693334 v 0.93133 l 0.338667,0.762 0.08467,0.508 -0.169334,0.508 -0.169333,0.16933 -0.08467,0.254 0.08467,0.254 1.016,1.43934 v 0.33866 l -0.08467,0.16934 -0.169333,0.16933 -0.592667,0.0847 -0.169333,0.16933 -0.08467,0.254 v 0.254 l 0.254,0.254 z"
   inkscape:connector-curvature="0"
   sodipodi:nodetypes="ccccccccccccccccccccccccccccccccccccc"
   inkscape:label="#warding_1518" />
<path
   id="warding_1543"
   style="fill:#0000ff;stroke:#000000;stroke-width:0.0881944;stroke-linecap:round;stroke-linejoin:round;stroke-miterlimit:10;stroke-dasharray:none;stroke-opacity:1"
   d="m 65.362672,194.39467 -0.169334,-0.33863 v -0.3387 l 0.254,-0.4233 0.254,-0.16937 0.169368,-0.33867 -0.08467,-0.33863 -0.169367,-0.254 -0.169334,-0.254 -0.254,-0.42337 0.0847,-0.42333 0.169299,-0.67733 h 1.608667 v 0.16933 l -0.423299,0.76203 v 0.508 l 0.254,0.25397 0.254,0.67733 v 0.67737 l -0.423368,0.59267 -0.08463,0.254 0.08463,0.254 0.592667,0.508 0.169333,0.33866 0.08467,0.4233 v 0.8467 l -0.169299,0.1693 h -1.947368 l -0.254,-0.1693 v -0.254 l 0.0847,-0.254 0.254,-0.16936 0.592667,-0.16934 0.169299,-0.0847 v -0.25397 l -0.08467,-0.16937 z"
   inkscape:connector-curvature="0"
   sodipodi:nodetypes="ccccccccccccccccccccccccccccccccccccc"
   inkscape:label="#warding_1543" />


<path
   style="fill:#0000ff;stroke:#211c1c;stroke-width:0.0881944;stroke-linecap:butt;stroke-linejoin:round;stroke-miterlimit:4;stroke-dasharray:none;stroke-opacity:1"
   d="m 65.532004,120.64983 h 1.651 c 0.2099,0 0.381,-0.17036 0.381,-0.38015 v -0.63098 c 0,-0.12436 -0.0759,-0.23615 -0.19156,-0.28233 l 0.001,-0.001 -0.60148,-0.23993 c -0.1711,-0.0681 -0.28258,-0.23307 -0.28258,-0.41634 0,-0.15709 0.0818,-0.30283 0.21696,-0.38397 l -0.001,-10e-4 0.56656,-0.34039 c 0.18097,-0.10919 0.2921,-0.30505 0.2921,-0.51622 v -1.43919 l -0.38382,-0.44022 c -0.0607,-0.0689 -0.0938,-0.15776 -0.0938,-0.24942 v -1.16582 h -1.2319 v 0.50711 c 0,0.19707 -0.1143,0.37621 -0.29281,0.45958 l 8e-4,-8e-4 -0.0854,0.04 c -0.1524,0.0709 -0.24941,0.22324 -0.24941,0.39067 v 1.0287 c 0,0.14608 0.0737,0.28197 0.19614,0.36138 l -8e-4,-0.001 0.33585,0.21876 c 0.0868,0.0562 0.13899,0.15212 0.13899,0.25513 0,0.10869 -0.0579,0.20908 -0.1524,0.26339 v 1.4e-4 l -0.33867,0.19328 c -0.1016,0.0584 -0.16404,0.16641 -0.16404,0.28318 0,0.0691 0.0219,0.13628 0.0624,0.19208 l 8e-4,2.7e-4 0.52457,0.72245 c 0.0536,0.0736 0.0826,0.16225 0.0826,0.25323 0,0.17191 -0.10265,0.32745 -0.26035,0.39564 l 0.001,-2.6e-4 -0.24271,0.1035 c -0.11148,0.048 -0.18379,0.1578 -0.18379,0.27922 v 0.23822 c 0,0.16779 0.13617,0.30403 0.30444,0.30403 z"
   id="warding_1655"
   inkscape:connector-curvature="0"
   sodipodi:nodetypes="cssscccscccsccsccscccsscccscccscccscccsscc"
   inkscape:label="#warding_1655" />
<path
   inkscape:connector-curvature="0"
   id="warding_1644"
   style="fill:#0000ff;stroke:#231f20;stroke-width:0.088;stroke-linecap:butt;stroke-linejoin:round;stroke-miterlimit:10;stroke-dasharray:none;stroke-opacity:1"
   d="m 67.50233,92.286817 c -0.145846,0.260472 -0.392579,0.439174 -0.654141,0.567501 -0.149721,0.07766 -0.327548,0.162406 -0.355965,0.349377 -0.04847,0.204545 0.09987,0.411227 0.297235,0.458555 0.196609,0.08271 0.40288,0.145394 0.5919,0.243887 0.161286,0.10083 0.195191,0.297865 0.182641,0.473044 -0.0029,0.229417 0.006,0.459589 -0.0046,0.688521 -0.02438,0.144075 -0.178389,0.199954 -0.307981,0.182295 -0.591022,-7.86e-4 -1.182123,0.0016 -1.773096,-0.0012 -0.148688,-0.01019 -0.226837,-0.165764 -0.204694,-0.300588 0.0013,-0.176821 -0.01803,-0.378868 0.12753,-0.510063 0.126201,-0.142674 0.356352,-0.105619 0.464133,-0.278388 0.123147,-0.158805 0.08391,-0.388068 -0.04766,-0.525882 -0.155694,-0.212261 -0.322815,-0.41679 -0.470629,-0.634387 -0.12679,-0.223056 -0.0098,-0.523102 0.219963,-0.621782 0.136413,-0.09071 0.336876,-0.143481 0.361254,-0.332562 0.02827,-0.161707 -0.103883,-0.266961 -0.227521,-0.336527 -0.155605,-0.110502 -0.370526,-0.192878 -0.403331,-0.406174 -0.04478,-0.202089 0.09874,-0.396801 0.285933,-0.459032 0.178001,-0.05621 0.2598,-0.242673 0.271011,-0.416681 0.0174,-0.208931 6.42e-4,-0.453085 -0.150463,-0.610434 -0.11661,-0.08271 -0.243767,-0.182346 -0.253641,-0.338422 -0.0059,-0.240403 -9.93e-4,-0.481206 -0.0026,-0.721768 0.506353,0 1.012707,0 1.51906,0 0.0069,0.197929 -0.01689,0.398784 0.01892,0.594087 0.04345,0.184072 0.201138,0.295479 0.361287,0.370613 0.244928,0.116635 0.294246,0.481135 0.10183,0.6618 -0.192623,0.198055 -0.394754,0.38773 -0.581089,0.591329 -0.106515,0.148272 -0.01614,0.355607 0.140795,0.419899 0.18065,0.121109 0.412905,0.194768 0.513151,0.40368 0.07627,0.15283 0.06731,0.344414 -0.01919,0.489282 z"
   sodipodi:nodetypes="ccccscccsssscccccscccscccscccscccccscccccsccscccscccscccsccc"
   inkscape:label="#warding_1644" />
<path
   style="fill:#0000ff;stroke:#231f20;stroke-width:0.0762;stroke-linecap:butt;stroke-linejoin:miter;stroke-miterlimit:10;stroke-dasharray:none;stroke-opacity:1"
   d="m 65.461704,40.752029 c -0.256586,-0.150559 -0.220314,-0.569661 0.04868,-0.6826 0.135917,-0.05088 0.281576,-0.138863 0.306084,-0.288247 0.06664,-0.24813 0.05982,-0.549436 -0.100117,-0.757397 -0.13769,-0.09877 -0.293214,-0.229199 -0.270977,-0.421833 v -1.948623 h 1.51694 c 1.52e-4,0.595773 -0.003,1.191602 -7.91e-4,1.78734 0.0072,0.226537 0.185285,0.392007 0.381291,0.47503 0.256955,0.123895 0.296691,0.512713 0.07291,0.688889 -0.183568,0.188833 -0.3774,0.368645 -0.554206,0.563425 -0.109146,0.153558 -0.01107,0.360994 0.151726,0.426239 0.203545,0.133977 0.477279,0.227971 0.537983,0.49402 0.08625,0.321794 -0.168336,0.603042 -0.402963,0.785263 -0.174424,0.13689 -0.401316,0.197702 -0.567959,0.346575 -0.190855,0.192415 -0.0874,0.556397 0.167287,0.625947 0.208081,0.08865 0.426157,0.156759 0.6268,0.260741 0.18316,0.116758 0.194531,0.338866 0.18548,0.532294 -0.0029,0.209296 0.0059,0.419182 -0.0047,0.628091 -0.03155,0.180211 -0.226207,0.192208 -0.372295,0.182406 -0.57633,-0.0031 -1.153278,0.0061 -1.729219,-0.0046 -0.180007,-0.03147 -0.191658,-0.22596 -0.181939,-0.371778 -0.01492,-0.186342 0.02769,-0.39721 0.204566,-0.496437 0.147536,-0.0763 0.345578,-0.09626 0.418948,-0.270668 0.09607,-0.172351 0.02104,-0.371512 -0.101839,-0.504147 -0.148905,-0.202648 -0.309972,-0.39706 -0.450502,-0.605384 -0.128753,-0.227504 -0.0057,-0.532795 0.231518,-0.626925 0.144208,-0.09001 0.359435,-0.156241 0.354249,-0.363037 4.4e-4,-0.211788 -0.222633,-0.281921 -0.36425,-0.388771 -0.03433,-0.02144 -0.10275,-0.06577 -0.10275,-0.06577 z"
   id="warding_1638"
   inkscape:connector-curvature="0"
   sodipodi:nodetypes="cscccccscccccsccccccscccscccscc"
   inkscape:label="#warding_1638" /><path
   style="fill:#0000ff;fill-opacity:1;stroke:#000000;stroke-width:0.0507975;stroke-linecap:round;stroke-linejoin:round;stroke-dasharray:none;stroke-opacity:1"
   d="m 200.46465,19.023936 h 1.97789 c 0.1232,0 0.22403,-0.08047 0.22403,-0.242983 v -1.79333 c 0,-0.207281 -0.0284,-0.365109 -0.27419,-0.427747 l -0.68363,-0.133594 c -0.26483,-0.04325 -0.32254,-0.128166 -0.33363,-0.3703 -0.005,-0.186784 0.0866,-0.315001 0.20045,-0.449883 l 0.90277,-1.069428 c 0.10598,-0.135121 0.18828,-0.232802 0.18828,-0.551006 v -1.162643 l -0.2952,-0.284537 v -0.321684 h -1.23992 v 0.974993 0.185737 c 0,0.0673 0.063,0.108689 0.14427,0.187691 0.1108,0.107718 0.2555,0.235026 0.32056,0.352456 0.0426,0.07692 0.077,0.166649 0.073,0.25542 -0.004,0.07903 -0.0178,0.207225 -0.0854,0.275619 -0.21115,0.213548 -0.85755,0.276357 -0.85755,0.276357 -0.3953,0.04699 -0.42267,0.220741 -0.42267,0.374032 v 1.657795 c 0,0.207133 0.0822,0.249183 0.18746,0.322971 l 0.71157,0.485945 c 0.14333,0.09788 0.19894,0.229557 0.19951,0.369538 5.8e-4,0.143332 -0.0518,0.28451 -0.30461,0.315415 l -0.61641,0.07533 c -0.11973,0.03251 -0.17749,0.07467 -0.17749,0.207757 v 0.27691 c 0,0.08763 0.0422,0.213148 0.16102,0.213148 z"
   id="warding_M3"
   sodipodi:nodetypes="csccccascsccccsssssacsccsssccccc"
   inkscape:connector-curvature="0"
   inkscape:label="#warding_M3" />
<path
   inkscape:connector-curvature="0"
   style="fill:#ff0000;stroke:#000000;stroke-width:0.0881944;stroke-linecap:round;stroke-linejoin:round;stroke-miterlimit:10;stroke-dasharray:none;stroke-opacity:1"
   d="m 18.372609,182.54125 -1.608688,0.1695 -1.523937,0.59272 -1.354956,0.93121 -1.100708,1.27021 -0.761712,0.76171 -1.015958,0.50798 -1.1007082,0.1695 -1.4391886,0.25373 -1.439705,0.42375 -1.269691,0.84646 -1.015958,1.01596 -0.846977,1.35443 -0.507979,1.35496 -0.168982,1.52394 0.168982,1.52394 0.507979,1.35495 0.846977,1.26969 1.015958,1.10071 1.269691,0.84698 1.439705,0.42323 1.4391886,0.16898 1.1007082,0.25425 1.015958,0.50798 0.761712,0.76171 1.100708,1.2702 1.354956,0.93121 1.523937,0.59273 1.608688,0.1695 h 6.603732 l 0.931725,-0.1695 0.84646,-0.33848 0.677477,-0.67748 0.507981,-0.76171 0.25373,-0.93172 0.254249,-2.28565 0.25373,-0.67748 0.677479,-0.42323 0.762227,-0.0847 0.67696,0.42323 0.507981,0.50798 0.592728,0.339 0.677479,0.0842 0.592727,-0.25373 0.42323,-0.50798 0.169498,-0.67748 v -0.93121 -0.42323 -0.1695 l 0.253733,-0.0847 h 25.738997 l 0.168981,-0.0848 0.1695,-0.0847 0.762228,-0.93121 0.338479,-0.59273 0.1695,-0.59273 -0.1695,-0.59221 -0.338479,-0.50798 -2.455664,-2.8789 -0.253733,-0.0847 H 34.035735 33.782002 v -0.25373 -0.25425 -1.01595 l -0.169498,-0.67748 -0.42323,-0.50798 -0.592727,-0.25373 -0.677479,0.0847 -0.592728,0.33848 -0.507981,0.50798 -0.67696,0.42323 -0.762227,-0.0847 -0.677479,-0.42323 -0.25373,-0.67748 -0.254249,-2.28565 -0.25373,-0.93173 -0.507981,-0.76171 -0.677477,-0.67747 -0.84646,-0.33848 -0.931725,-0.1695 z m -8.8898968,7.95868 1.0159578,0.1695 0.84646,0.50798 0.677478,0.67748 0.50798,0.84646 0.169499,1.01596 -0.169499,1.01596 -0.50798,0.84698 -0.677478,0.67696 -0.84646,0.50797 -1.0159578,0.0848 -1.015959,-0.0848 -0.846977,-0.50797 -0.676961,-0.67696 -0.508496,-0.84698 -0.08423,-1.01596 0.08423,-1.01596 0.508496,-0.84646 0.676961,-0.67748 0.846977,-0.50798 z"
   id="outline_1543"
   inkscape:label="#outline_1543" /><path
   inkscape:connector-curvature="0"
   style="fill:#ff0000;stroke:#000000;stroke-width:0.0881944;stroke-linecap:round;stroke-linejoin:round;stroke-miterlimit:10;stroke-dasharray:none;stroke-opacity:1"
   d="m 7.7892762,3.7252989 -1.185458,0.1695 -0.931209,0.50798 -0.84646,0.76171 -0.507979,1.01596 -0.169499,1.10071 V 22.69055 l 0.169499,1.10071 0.507979,1.015962 0.84646,0.76223 0.931209,0.50798 1.185458,0.16898 H 25.061089 l 1.185458,-0.16898 0.931209,-0.50798 0.846975,-0.76223 0.507979,-1.015962 0.1695,-1.10071 v -0.16949 l 0.168982,-0.67697 0.507978,-0.50798 0.677479,-0.16949 h 2.455148 l 0.338998,-0.1695 0.168981,-0.42323 V 19.72743 19.3042 l 0.08475,-0.1695 0.169497,-0.0847 h 25.738482 l 0.254248,-0.0847 0.931209,-1.01596 0.338482,-0.59273 0.08475,-0.59273 -0.08475,-0.59272 -0.338482,-0.59222 -2.455148,-2.87889 -0.254246,-0.0847 H 34.035734 l -0.168982,-0.0847 -0.08475,-0.16898 v -0.1695 -0.846461 l -0.1695,-0.76223 -0.507979,-0.50798 -0.67696,-0.1695001 h -2.370916 l -0.677479,-0.16898 -0.507978,-0.50798 -0.168982,-0.67747 v -1.27021 l -0.1695,-1.10071 -0.507979,-1.01596 -0.846975,-0.76171 -0.931209,-0.50798 -1.185458,-0.1695 z m 1.5239376,8.4666711 0.9312092,0.1695 0.762228,0.33848 0.592728,0.67748 0.42323,0.76171 0.08475,0.84697 -0.08475,0.84646 -0.42323,0.76223 -0.592728,0.59273 -0.762228,0.42323 -0.9312092,0.0847 -0.8464596,-0.0847 -0.762228,-0.42323 -0.592728,-0.59273 -0.42323,-0.76223 -0.08475,-0.84646 0.08475,-0.84697 0.42323,-0.76171 0.592728,-0.67748 0.762228,-0.33848 z"
   id="outline_1518"
   inkscape:label="#outline_1518" /><path
   style="fill:#ff0000;stroke:#000000;stroke-width:0.0881944;stroke-linecap:round;stroke-linejoin:round;stroke-miterlimit:10;stroke-dasharray:none;stroke-opacity:1"
   d="m 18.457359,156.2948 -1.693437,0.25373 -1.523939,0.59273 -1.354954,0.93173 -1.100709,1.18494 -0.76171,0.84698 -1.015959,0.50797 -1.1007082,0.16899 -1.4391893,0.1695 -1.439705,0.50797 -1.26969,0.76223 -1.015959,1.10071 -0.846977,1.26969 -0.507979,1.43971 -0.168982,1.43918 0.168982,1.52394 0.507979,1.4392 0.846977,1.2702 1.015959,1.01596 1.26969,0.84646 1.439705,0.50798 1.4391893,0.1695 1.1007082,0.1695 1.015959,0.50798 0.76171,0.76171 1.100709,1.27021 1.354954,0.9312 1.523939,0.59273 1.693437,0.1695 h 6.518982 l 0.931725,-0.0847 0.84646,-0.42323 0.677479,-0.59273 0.507979,-0.76223 0.25373,-0.9312 0.254249,-1.94717 0.338481,-0.67748 0.677478,-0.42323 h 0.761709 l 0.677479,0.42323 0.42323,0.42323 0.507979,0.42323 0.677479,0.0847 0.592727,-0.25373 0.507979,-0.50798 0.1695,-0.67748 v -1.01596 -0.1695 l 0.25373,-0.0847 h 31.242021 l 0.1695,-0.0847 1.015958,-1.10019 0.338482,-0.50798 0.169497,-0.59273 -0.169497,-0.67747 -0.338482,-0.59274 -3.640606,-4.06383 -0.254246,-0.0848 h -26.923939 -0.08475 l -0.338481,0.1695 -0.08475,0.0842 h -1.100709 l -0.25373,-0.0842 v -0.1695 -1.52394 l -0.1695,-0.67748 -0.507979,-0.50798 -0.592727,-0.16949 -0.677479,0.0847 -0.550355,0.38085 -0.380854,0.46612 -0.677479,0.42323 h -0.761708 l -0.677478,-0.42323 -0.338481,-0.76222 -0.254249,-1.94717 -0.25373,-0.84698 -0.507979,-0.76171 -0.677479,-0.67748 -0.84646,-0.33848 -0.931725,-0.1695 z m -8.9746465,8.12819 0.9312095,0.0842 0.93121,0.50798 0.677478,0.67748 0.42323,0.84697 0.169499,0.93121 -0.169499,1.01596 -0.42323,0.84646 -0.677478,0.67748 -0.93121,0.42323 -0.9312095,0.1695 -0.931726,-0.1695 -0.931209,-0.42323 -0.676962,-0.67748 -0.423746,-0.84646 -0.168982,-1.01596 0.168982,-0.93121 0.423746,-0.84697 0.676962,-0.67748 0.931209,-0.50798 z"
   id="outline_a1517"
   inkscape:connector-curvature="0"
   inkscape:label="#outline_a1517" /><path
   inkscape:connector-curvature="0"
   style="fill:#ff0000;stroke:#000000;stroke-width:0.0881944;stroke-linecap:butt;stroke-linejoin:miter;stroke-miterlimit:10;stroke-dasharray:none;stroke-opacity:1"
   d="m 75.2073,14.46328 c 0,6.176147 4.829302,11.27506 10.997778,11.61221 4.067473,-0.222321 7.722205,-2.55543 9.635071,-6.151046 0.29986,-0.563597 0.886032,-0.915866 1.526005,-0.895035 l 1.187005,0.02066 -0.0026,1.663983 c -0.0024,0.250772 0.225226,0.478345 0.507978,0.507978 h 1.778183 c 0.27797,-0.02963 0.50555,-0.257206 0.50798,-0.507978 l 0.002,-1.663505 31.41153,-0.0011 1.41335,-1.449567 c 0.27354,-0.306565 0.44235,-0.709819 0.44235,-1.130681 0,-0.39437 -0.14846,-0.774531 -0.37362,-1.062469 l -3.85251,-4.061237 h -29.04059 l -0.003,-1.446339 c -0.002,-0.777595 -0.62834,-1.403017 -1.399405,-1.403017 -0.339124,0 -0.666583,0.123399 -0.902787,0.37052 l -0.759689,0.670761 c -0.29905,0.218316 -0.662564,0.355534 -1.038696,0.355534 -0.576084,0 -1.104497,-0.319842 -1.372009,-0.829924 C 93.969172,5.434464 90.296954,3.074629 86.205014,2.851003 80.036556,3.188119 75.207237,8.287032 75.207237,14.463216 Z m 2.630848,-0.02739 c 0,-1.892194 1.536078,-3.428214 3.428731,-3.428214 1.892687,0 3.42873,1.53602 3.42873,3.428214 0,1.892194 -1.536043,3.427698 -3.42873,3.427698 -1.892653,0 -3.428731,-1.535504 -3.428731,-3.427698 z"
   id="outline_a1515"
   sodipodi:nodetypes="ccccccccccccsccccsccsccccsssss"
   inkscape:label="#outline_a1515" /><path
   inkscape:connector-curvature="0"
   style="fill:#ff0000;stroke:#000000;stroke-width:0.0881944;stroke-linecap:round;stroke-linejoin:round;stroke-miterlimit:10;stroke-dasharray:none;stroke-opacity:1"
   d="m 75.26853,40.978568 0.33848,2.031915 0.762228,1.94717 1.015958,1.778185 1.354957,1.608688 1.60817,1.270206 1.862935,1.01596 1.947168,0.592728 2.031917,0.338481 1.947686,-0.254248 1.947166,-0.676961 1.778188,-0.846978 1.523937,-1.269688 1.354439,-1.439707 1.100709,-1.69292 0.338997,-0.423746 0.592211,-0.338482 0.592727,-0.169497 h 1.185458 v 1.693436 l 0.1695,0.338998 0.338479,0.168981 h 1.77819 l 0.33848,-0.168981 0.1695,-0.338998 v -1.693111 h 27.26242 l 1.10071,-1.100973 0.339,-0.507979 0.0842,-0.67696 -0.0842,-0.59273 -0.339,-0.592728 -3.81011,-4.23363 -24.55302,6.1e-5 v -1.354722 l -0.25425,-0.761709 -0.59273,-0.507981 -0.761711,-0.169498 -0.677479,0.338998 -0.761709,0.67696 -0.507979,0.338997 -0.59273,0.08423 -0.507979,-0.08423 -0.507978,-0.338997 -0.338997,-0.42323 -1.015961,-1.693437 -1.354439,-1.439188 -1.608685,-1.270206 -1.778188,-0.931209 -1.862418,-0.592732 -2.032434,-0.25373 -2.031917,0.25373 -1.947168,0.677481 -1.862935,1.015957 -1.60817,1.270209 -1.354957,1.523937 -1.015958,1.777669 -0.762228,1.947685 -0.33848,2.116667 z m 2.539896,-1.01596 0.169499,-1.100707 0.507979,-0.931209 0.762228,-0.762227 0.931209,-0.507982 1.100708,-0.169497 1.015958,0.169497 1.015959,0.507982 0.76171,0.762227 0.423747,0.931209 0.168982,1.100707 -0.168982,1.01596 -0.423747,1.015958 -0.76171,0.762227 -1.015959,0.42323 -1.015958,0.168982 -1.100708,-0.168982 -0.931209,-0.42323 -0.762228,-0.762227 -0.507979,-1.015958 z"
   id="outline_1515"
   sodipodi:nodetypes="ccccccccccccccccccccccccccccccccccccccccccccccccccccccccccccccccccccccccccccccccc"
   inkscape:label="#outline_1515" /><path
   inkscape:connector-curvature="0"
   style="fill:#ff0000;stroke:#000000;stroke-width:0.0881944;stroke-linecap:round;stroke-linejoin:round;stroke-miterlimit:10;stroke-dasharray:none;stroke-opacity:1"
   d="m 85.259657,54.356417 -1.862934,0.25373 -1.778186,0.59273 -1.608688,0.93121 -1.523938,1.18546 -1.184941,1.35444 -1.015958,1.69343 -0.762228,1.77819 -0.423229,1.86242 -0.169499,1.86294 0.169499,1.94716 0.423229,1.86294 0.762228,1.77767 1.015958,1.60868 1.184941,1.35496 1.439706,1.18494 1.523938,0.93173 1.777669,0.59272 1.778185,0.33849 h 1.862936 l 1.777669,-0.33849 1.693436,-0.67747 1.608688,-0.84698 1.439188,-1.18494 1.185457,-1.35496 0.931209,-1.60868 0.338998,-0.50798 0.592211,-0.33848 0.592731,-0.0848 h 0.592727 l 0.1695,0.0848 0.08475,0.16949 v 0.67697 l 0.08475,0.339 0.42323,0.16898 h 1.777671 l 0.339,-0.16898 0.16898,-0.339 v -1.22732 -0.29662 l 0.25425,-0.0848 h 25.5695 0.16898 l 0.93172,-0.93121 0.33848,-0.59273 0.1695,-0.67696 -0.0848,-0.59273 -0.339,-0.59273 -2.70887,-2.96364 -0.1695,-0.0842 h -23.19859 l -0.1695,-0.0848 -0.0847,-0.1695 v -0.25425 -0.76171 l -0.25373,-0.76223 -0.59273,-0.50798 -0.762227,-0.0847 -0.677476,0.339 -0.507982,0.42323 -0.507979,0.33848 -0.676959,0.0848 -0.677479,-0.0848 -0.592727,-0.42323 -0.338482,-0.59273 -0.846976,-1.60868 -1.184942,-1.52394 -1.354955,-1.26969 -1.608688,-1.01596 -1.777669,-0.67748 -1.862935,-0.42323 z m -4.318082,8.38192 1.015959,0.16898 0.84646,0.42375 0.762227,0.67696 0.423229,0.93172 0.169499,0.93122 -0.169499,1.01595 -0.423229,0.84646 -0.762227,0.76223 -0.84646,0.42323 -1.015959,0.1695 -0.931726,-0.1695 -0.931209,-0.42323 -0.676961,-0.76223 -0.423747,-0.84646 -0.168982,-1.01595 0.168982,-0.93122 0.423747,-0.93172 0.676961,-0.67696 0.931209,-0.42375 z"
   id="outline_1542"
   inkscape:label="#outline_1542" /><path
   inkscape:connector-curvature="0"
   style="fill:#ff0000;stroke:#000000;stroke-width:0.0881944;stroke-linecap:round;stroke-linejoin:round;stroke-miterlimit:10;stroke-dasharray:none;stroke-opacity:1"
   d="m 18.457357,130.8948 -1.693436,0.25373 -1.52394,0.59273 -1.354955,0.93173 -1.100707,1.18494 -0.761711,0.84698 -1.015958,0.50798 -1.100708,0.16898 -1.4391881,0.1695 -1.439706,0.50798 -1.26969,0.76222 -1.015959,1.10071 -0.846976,1.26969 -0.50798,1.43971 -0.168982,1.43919 0.168982,1.52393 0.50798,1.43919 0.846976,1.27021 1.015959,1.01596 1.26969,0.84646 1.439706,0.50798 1.4391881,0.1695 1.100708,0.1695 1.015958,0.50798 0.761711,0.76171 1.100707,1.27021 1.354955,0.9312 1.52394,0.59272 1.693436,0.1695 h 6.518982 l 0.931724,-0.0847 0.846461,-0.42322 0.677479,-0.59273 0.507978,-0.76222 0.25373,-0.93121 0.254248,-1.94717 0.338482,-0.67748 0.677479,-0.42323 h 0.761709 l 0.677479,0.42323 0.42323,0.42323 0.507979,0.42323 0.677478,0.0847 0.592728,-0.25373 0.507979,-0.50798 0.1695,-0.67748 v -1.01596 -0.1695 l 0.25373,-0.0847 h 26.868824 l 0.1695,-0.0848 1.015957,-1.10019 0.338482,-0.50798 0.169497,-0.59273 -0.169497,-0.67747 -0.338482,-0.59273 -3.640605,-4.06384 -0.254246,-0.0847 H 35.64442 35.55967 l -0.338481,0.1695 -0.08475,0.0842 H 34.03573 l -0.25373,-0.0842 v -0.1695 -1.52394 l -0.1695,-0.67748 -0.507979,-0.50798 -0.592728,-0.16949 -0.677478,0.0847 -0.550355,0.38085 -0.380854,0.46612 -0.677479,0.42323 h -0.761708 l -0.677479,-0.42323 -0.338482,-0.76222 -0.254248,-1.94717 -0.25373,-0.84698 -0.507978,-0.76171 -0.677479,-0.67748 -0.846461,-0.33848 -0.931724,-0.1695 z m -8.9746451,8.12819 0.9312101,0.0842 0.931209,0.50798 0.677477,0.67748 0.42323,0.84697 0.169499,0.93121 -0.169499,1.01596 -0.42323,0.84646 -0.677477,0.67748 -0.931209,0.42323 -0.9312101,0.1695 -0.931726,-0.1695 -0.931209,-0.42323 -0.676962,-0.67747 -0.423746,-0.84646 -0.168982,-1.01596 0.168982,-0.93121 0.423746,-0.84698 0.676962,-0.67748 0.931209,-0.50798 z"
   id="outline_1517"
   sodipodi:nodetypes="cccccccccccccccccccccccccccccccccccccccccccccccccccccccccccccccccccccccccccccccccccccccccccccccccccccccc"
   inkscape:label="#outline_1517" /><path
   inkscape:connector-curvature="0"
   style="fill:#ff0000;stroke:#211c1c;stroke-width:0.0881944;stroke-linecap:butt;stroke-linejoin:miter;stroke-miterlimit:4;stroke-dasharray:none;stroke-opacity:1"
   d="m 4.7765449,124.74277 c 0,1.97231 1.60421,3.57291 3.58118,3.57291 H 25.704982 c 1.97679,0 3.58117,-1.6006 3.58117,-3.57291 v -0.65164 c 0,-0.79047 0.64304,-1.43144 1.43506,-1.43144 h 2.55281 c 0.28025,0 0.50798,-0.22719 0.50798,-0.50694 v -1.24954 c 0,-0.13988 0.11354,-0.25322 0.25373,-0.25322 l 24.89047,1e-5 c 0.30869,0 0.55914,-0.24979 0.55914,-0.55759 v -0.55759 c 0,-0.62823 0.49858,-1.14361 1.12758,-1.1653 v -10e-4 c 0.36266,-0.0124 0.65061,-0.30903 0.65061,-0.67076 0,-0.16606 -0.0618,-0.32626 -0.1726,-0.44959 l -2.66495,-2.95176 c -0.0483,-0.0532 -0.11618,-0.0832 -0.18811,-0.0832 h -24.20214 c -0.14019,0 -0.25373,-0.11385 -0.25373,-0.25373 v -1.17357 c 0,-0.7276 -0.59169,-1.31723 -1.32085,-1.31723 h -1.73994 c -0.79202,0 -1.43506,-0.64163 -1.43506,-1.43195 v -0.65164 c 0,-1.972 -1.60438,-3.57343 -3.58117,-3.57343 H 8.3577249 c -1.97697,0 -3.58118,1.60143 -3.58118,3.57343 z m 2.40657,-7.65431 c 0,-1.52496 1.24025,-2.76263 2.76831,-2.76263 1.5282701,0 2.7688201,1.23767 2.7688201,2.76263 0,1.52481 -1.24055,2.7621 -2.7688201,2.7621 -1.52806,0 -2.76831,-1.23729 -2.76831,-2.7621 z"
   id="outline_1655"
   inkscape:label="#outline_1655" /><path
   id="outline_1644"
   style="fill:#ff0000;stroke:#231f20;stroke-width:0.176389;stroke-linecap:butt;stroke-linejoin:miter;stroke-miterlimit:10;stroke-dasharray:none;stroke-opacity:1"
   d="m 7.6430123,91.249368 c 0,1.7501 1.42215,3.17052 3.1746797,3.17052 1.752171,0 3.174471,-1.42042 3.174471,-3.17052 0,-1.75027 -1.4223,-3.17104 -3.174471,-3.17104 -1.7525297,0 -3.1746797,1.42077 -3.1746797,3.17104 z m 21.4686277,-7.5408 v 0.83718 c 0,0.83989 0.68266,1.52203 1.52379,1.52203 h 1.92768 c 0.67282,0 1.21889,0.54535 1.21889,1.2175 v 1.26848 c 0,0.13988 0.11387,0.25355 0.25407,0.25355 h 23.7915 c 0.21378,0 0.41769,0.0896 0.56233,0.24736 l -7.9e-4,10e-4 2.41653,2.6379 c 0.32561,0.35553 0.50624,0.81975 0.50624,1.30139 0,0.54431 -0.23001,1.06314 -0.63394,1.42851 l -7.9e-4,-2.6e-4 -0.84314,0.76119 c -0.0462,0.0424 -0.10724,0.0656 -0.17039,0.0656 H 34.03591 c -0.14019,0 -0.25407,0.1137 -0.25407,0.25376 v 1.395047 c 0,0.22409 -0.18189,0.40584 -0.40619,0.40584 h -2.74038 c -0.84112,0 -1.52378,0.68195 -1.52378,1.52202 0,1.948065 -1.55081,3.543125 -3.50055,3.600335 -2.92128,0.0856 -5.84358,0.12831 -8.766062,0.12831 -2.92227,0 -5.844581,-0.0427 -8.7658607,-0.12831 -1.949605,-0.0572 -3.500595,-1.6523 -3.500595,-3.600365 V 83.708518 c 0,-1.94786 1.55099,-3.54291 3.50058,-3.60013 2.9212797,-0.0854 5.8435907,-0.12884 8.7660307,-0.12884 2.922487,0 5.844787,0.0434 8.765887,0.12884 1.94974,0.0572 3.50055,1.65227 3.50055,3.60013 z"
   inkscape:connector-curvature="0"
   inkscape:label="#outline_1644" /><path
   id="outline_M3"
   style="fill:#ff0000;stroke:#231f20;stroke-width:0.1778;stroke-linecap:butt;stroke-linejoin:miter;stroke-miterlimit:10;stroke-dasharray:none;stroke-opacity:1"
   d="m 145.18415,15.0494 c 0,1.7501 1.42215,3.17052 3.17468,3.17052 1.75217,0 3.17447,-1.42042 3.17447,-3.17052 0,-1.75027 -1.4223,-3.171042 -3.17447,-3.171042 -1.75253,0 -3.17468,1.420772 -3.17468,3.171042 z m 21.46863,-7.5408027 v 0.83718 c 0,0.83989 0.68266,1.52203 1.52379,1.52203 h 1.92768 c 0.67282,0 1.21876,0.4471857 1.21876,1.1317387 v 0.413917 0.529119 c 0,0.13988 0.114,0.249418 0.2542,0.249418 h 23.7915 c 0.21378,0 0.41769,0.03709 0.48961,0.116469 l 2.48846,2.717281 c 0.32561,0.35553 0.50624,1.19357 0.50624,1.67521 0,0.54431 -0.19507,1.02845 -0.41489,1.228335 l -1.06295,1.055105 c -0.0462,0.0424 -0.10724,0.0656 -0.17039,0.0656 h -12.82891 -12.7988 c -0.14019,0 -0.25407,0.1137 -0.25407,0.25376 v 0.700393 0.694657 c 0,0.22409 -0.18189,0.40584 -0.40619,0.40584 h -2.74038 c -0.84112,0 -1.52378,0.68195 -1.52378,1.52202 0,1.94807 -1.55081,3.54313 -3.50055,3.60034 -2.92128,0.0856 -5.84358,0.12831 -8.76607,0.12831 -2.92227,0 -5.84458,-0.0427 -8.76586,-0.12831 -1.9496,-0.0572 -3.50059,-1.6523 -3.50059,-3.60037 V 7.5085173 c 0,-1.94786 1.55099,-3.54291 3.50058,-3.60013 2.92128,-0.0854 5.84359,-0.12884 8.76603,-0.12884 2.92249,0 5.84479,0.0434 8.76589,0.12884 1.94974,0.0572 3.50055,1.65227 3.50055,3.60013 z"
   inkscape:connector-curvature="0"
   inkscape:label="#outline_M3"
   sodipodi:nodetypes="ssssscsssscsssccsccscsscsssscscsscsccc" /><path
   inkscape:connector-curvature="0"
   style="fill:#ff0000;stroke:#231f20;stroke-width:0.0881944;stroke-linecap:butt;stroke-linejoin:miter;stroke-miterlimit:10;stroke-dasharray:none;stroke-opacity:1"
   d="m 3.8401502,47.383219 c 0,2.06051 1.63657,3.74723 3.69383,3.80752 2.9200498,0.0858 5.8410098,0.12868 8.7622598,0.12868 2.92128,0 5.8422,-0.0429 8.76225,-0.12868 2.05726,-0.0603 3.69383,-1.74701 3.69383,-3.80752 v -0.90175 c 0,-0.77103 0.62512,-1.39681 1.39527,-1.39681 0.40188,0 0.78413,0.17346 1.04903,0.47594 l 0.001,0.002 0.50642,0.58187 c 0.2244,0.25636 0.54826,0.40359 0.8888,0.40359 0.6525,0 1.18236,-0.53052 1.18236,-1.1839 v -0.65991 c 0,-0.1402 0.11385,-0.25425 0.25373,-0.25425 h 26.97665 c 0.0677,0 0.13272,-0.0269 0.18035,-0.0744 l -0.003,10e-4 0.98392,-0.98341 c 0.33831,-0.33863 0.52865,-0.79806 0.52865,-1.27692 0,-0.44616 -0.16509,-0.87666 -0.46354,-1.2082 l -5.3e-4,-10e-4 -3.70365,-4.11861 c -0.0476,-0.0538 -0.11649,-0.0842 -0.1881,-0.0842 H 34.02846 c -0.13988,0 -0.25374,-0.11374 -0.25374,-0.25425 v -1.93528 c 0,-0.649 -0.52623,-1.17512 -1.1746,-1.17512 -0.25598,0 -0.50503,0.0832 -0.709,0.23823 h 10e-4 l -0.90283,0.68475 c -0.24236,0.18326 -0.53813,0.28318 -0.84233,0.28318 -0.77014,0 -1.39526,-0.62637 -1.39526,-1.39733 v -0.90123 c 0,-2.06016 -1.63657,-3.7474 -3.69383,-3.80804 -2.92005,-0.0854 -5.84098,-0.12816 -8.76226,-0.12816 -2.92124,0 -5.84238,0.0428 -8.7622498,0.12816 -2.05726,0.0606 -3.69383,1.74788 -3.69383,3.80804 z m 3.27887,-7.59126 c 0,-1.75253 1.42093,-3.17449 3.1713798,-3.17449 1.75045,0 3.17086,1.42196 3.17086,3.17449 0,1.75231 -1.42041,3.17448 -3.17086,3.17448 -1.7504498,0 -3.1713798,-1.42217 -3.1713798,-3.17448 z"
   id="outline_1638"
   inkscape:label="#outline_1638" /><path
   inkscape:connector-curvature="0"
   style="fill:#ff0000;stroke:#231f20;stroke-width:0.0881944;stroke-linecap:butt;stroke-linejoin:miter;stroke-miterlimit:10;stroke-dasharray:none;stroke-opacity:1"
   d="m 3.8427302,72.773917 c 0,2.05419 1.63674,3.73637 3.69435,3.79666 2.9203998,0.0854 5.8416898,0.12816 8.7632898,0.12816 2.92163,0 5.84289,-0.0427 8.76329,-0.12816 2.05761,-0.0603 3.69435,-1.74247 3.69435,-3.79666 v -0.89865 c 0,-0.76878 0.62511,-1.39268 1.39526,-1.39268 0.40185,0 0.78461,0.17294 1.04955,0.47438 l 0.001,0.002 0.50643,0.58033 c 0.22443,0.25545 0.54844,0.40204 0.88883,0.40204 0.65267,0 1.18236,-0.52847 1.18236,-1.17977 v -0.65836 c 0,-0.1397 0.11368,-0.25321 0.25373,-0.25321 h 31.42078 c 0.0674,0 0.13221,-0.0264 0.17983,-0.0739 l -0.002,5.3e-4 0.98392,-0.9803 c 0.33832,-0.33761 0.52865,-0.79583 0.52865,-1.27331 0,-0.44492 -0.1656,-0.87399 -0.46405,-1.20458 l -5.3e-4,-5.3e-4 -3.70365,-4.10672 c -0.048,-0.0534 -0.1163,-0.0837 -0.18862,-0.0837 H 34.0352 c -0.14005,0 -0.25373,-0.1137 -0.25373,-0.25322 v -1.9296 h 5.3e-4 c 0,-0.64696 -0.52627,-1.17202 -1.17461,-1.17202 -0.25615,0 -0.5054,0.0834 -0.70951,0.23771 h 10e-4 l -0.90279,0.68265 c -0.24254,0.18327 -0.53864,0.28267 -0.84284,0.28267 -0.77015,0 -1.39527,-0.62425 -1.39527,-1.3932 v -0.89865 c 0,-2.05398 -1.63674,-3.73586 -3.69434,-3.79615 -2.9204,-0.0854 -5.84166,-0.12816 -8.7633,-0.12816 -2.92159,0 -5.84288,0.0427 -8.7632798,0.12816 -2.05762,0.0603 -3.69435,1.74217 -3.69435,3.79615 z m 3.26853,-7.55251 c 0,-1.74721 1.42076,-3.16518 3.1713898,-3.16518 1.75062,0 3.1719,1.41797 3.1719,3.16518 0,1.74699 -1.42128,3.16466 -3.1719,3.16466 -1.7506298,0 -3.1713898,-1.41767 -3.1713898,-3.16466 z"
   id="outline_a1638"
   inkscape:label="#outline_a1638" /><path
   id="engrave_1515"
   style="opacity:0.5;fill:#00ff00;stroke:#000000;stroke-width:0.0881944;stroke-linecap:round;stroke-linejoin:round;stroke-miterlimit:10;stroke-dasharray:none;stroke-opacity:1"
   d="m 96.689239,40.30123 -0.08467,-1.947368 -0.423333,-1.862667 -0.762,-1.777997 -1.016,-1.524 -1.27,-1.439334 -1.524,-1.185333 -1.693333,-0.846667 -1.862667,-0.592666 -1.862664,-0.254 -1.947334,0.254 -1.862666,0.592666 -1.777999,1.016 -1.524,1.185334 -1.269999,1.524 -1.016,1.693333 -0.677333,1.862664 -0.338667,1.947333 v 1.947334 l 0.338667,1.947333 0.677333,1.862667 1.016,1.69333 1.269999,1.524 1.524,1.27 1.777999,0.931334 1.862666,0.677333 1.947334,0.254 1.862664,-0.254 1.778,-0.592667 1.693333,-0.846666 1.524,-1.185334 1.27,-1.354666 1.016,-1.608664 0.931333,-2.370667 z"
   inkscape:connector-curvature="0"
   sodipodi:nodetypes="ccccccccccccccccccccccccccccccccccc"
   inkscape:label="#engrave_1515" /><path
   id="engrave_a1515"
   style="opacity:0.5;fill:#00ff00;stroke:#000000;stroke-width:0.0881944;stroke-linecap:butt;stroke-linejoin:miter;stroke-miterlimit:10;stroke-dasharray:none;stroke-opacity:1"
   d="m 96.694428,14.463348 c 0,-5.895763 -4.601914,-10.767057 -10.489491,-11.103572 -5.887541,0.336515 -10.489456,5.207809 -10.489456,11.103572 0,5.895727 4.601915,10.767021 10.489456,11.103536 4.524727,-0.258622 8.440134,-3.235605 10.082898,-8.209647 0.332264,-1.411375 0.406593,-2.151716 0.406593,-2.893889 z"
   inkscape:connector-curvature="0"
   sodipodi:nodetypes="scsccs"
   inkscape:label="#engrave_a1515" /><path
   id="engrave_a1517"
   style="opacity:0.5;fill:#00ff00;stroke:#000000;stroke-width:0.0881944;stroke-linecap:round;stroke-linejoin:round;stroke-miterlimit:10;stroke-dasharray:none;stroke-opacity:1"
   d="m 10.921856,161.12078 0.846702,-0.33867 0.761964,-0.508 0.677369,-0.67733 1.016,-1.18533 1.269998,-0.84667 1.439333,-0.59267 1.524,-0.16933 h 6.519296 l 0.762,0.16933 0.762035,0.254 0.592632,0.59267 0.338701,0.59267 0.254,0.762 1.100667,8.29733 -1.100667,8.29733 -0.254,0.762 -0.338701,0.67734 -0.592632,0.508 -0.762035,0.33866 -0.762,0.0847 h -6.519296 l -1.524,-0.16933 -1.439333,-0.508 -1.269998,-0.93133 -1.016,-1.10067 -0.677369,-0.67733 -0.761964,-0.59267 -0.846702,-0.33867 -1.0159652,-0.0847 -1.3547013,-0.16933 -1.269965,-0.508 -1.185333,-0.67733 -1.015999,-1.016 -0.762036,-1.18533 -0.423298,-1.27001 -0.169333,-1.43933 0.169333,-1.35467 0.423298,-1.35467 0.762036,-1.10066 1.015999,-1.016 1.185333,-0.762 1.269965,-0.42334 1.3547013,-0.16933 z"
   inkscape:connector-curvature="0"
   sodipodi:nodetypes="ccccccccccccccccccccccccccccccccccccccccccccc"
   inkscape:label="#engrave_a1517" /><path
   id="engrave_1542"
   style="opacity:0.5;fill:#00ff00;stroke:#000000;stroke-width:0.0881944;stroke-linecap:round;stroke-linejoin:round;stroke-miterlimit:10;stroke-dasharray:none;stroke-opacity:1"
   d="m 96.012129,66.802237 v -1.86266 l -0.169333,-1.778 -0.423333,-1.778 -0.846702,-1.60867 -1.016,-1.524 -1.354666,-1.18533 -1.523964,-1.016 -1.608667,-0.762 -1.777999,-0.33867 -1.862666,-0.0847 -1.778,0.16933 -1.778034,0.59266 -1.523964,0.84667 -1.439333,1.18533 -1.185334,1.35467 -1.100701,1.778 -0.761965,1.94733 -0.338702,2.11667 v 2.11666 l 0.338702,2.032 0.761965,1.94734 1.100701,1.86266 1.100667,1.27 1.354666,1.10067 1.524,0.84667 1.608666,0.59266 1.693332,0.33867 h 1.693333 l 1.777965,-0.33867 1.608666,-0.59266 1.524035,-0.84667 1.354631,-1.016 1.100666,-1.35467 0.931368,-1.43933 0.592667,-1.60867 0.380982,-1.778 z"
   inkscape:connector-curvature="0"
   sodipodi:nodetypes="cccccccccccccccccccccccccccccccccccccc"
   inkscape:label="#engrave_1542" /><path
   id="engrave_1518"
   style="opacity:0.5;fill:#00ff00;stroke:#000000;stroke-width:0.0881944;stroke-linecap:round;stroke-linejoin:round;stroke-miterlimit:10;stroke-dasharray:none;stroke-opacity:1"
   d="m 28.193993,7.2812789 -0.169333,-0.93134 -0.423334,-0.84666 -0.677332,-0.762 -0.846667,-0.42334 -1.015999,-0.0847 H 7.7893332 l -1.016,0.0847 -0.846667,0.42334 -0.677333,0.762 -0.423333,0.84666 -0.169333,0.93134 V 22.6906 l 0.169333,0.93134 0.423333,0.846662 0.677333,0.67734 0.846667,0.42333 1.016,0.16933 H 25.061328 l 1.015999,-0.16933 0.846667,-0.42333 0.677332,-0.67734 0.423334,-0.846662 0.169333,-0.93134 v -6.64633 z"
   inkscape:connector-curvature="0"
   sodipodi:nodetypes="cccccccccccccccccccccccccc"
   inkscape:label="#engrave_1518" /><path
   id="engrave_1543"
   style="opacity:0.5;fill:#00ff00;stroke:#000000;stroke-width:0.0881944;stroke-linecap:round;stroke-linejoin:round;stroke-miterlimit:10;stroke-dasharray:none;stroke-opacity:1"
   d="m 27.685873,201.92998 -0.169298,0.76197 -0.423368,0.67733 -0.592632,0.59267 -0.762035,0.33867 -0.762,0.0847 h -6.603998 l -1.439298,-0.16937 -1.439368,-0.59267 -1.269999,-0.84663 -1.015964,-1.10067 -0.677369,-0.762 -0.762,-0.508 -0.846667,-0.3387 -1.0160002,-0.1693 -1.3546656,-0.0847 -1.27,-0.508 -1.185298,-0.762 -1.015999,-0.93133 -0.762035,-1.18534 -0.423333,-1.35466 -0.169298,-1.3547 0.169298,-1.35464 0.423333,-1.3547 0.762035,-1.1853 1.015999,-0.93136 1.185298,-0.76197 1.27,-0.508 1.3546656,-0.16933 1.0160002,-0.0847 0.846667,-0.33863 0.762,-0.508 0.677369,-0.76204 1.015964,-1.10067 1.269999,-0.84666 1.439368,-0.59263 1.439298,-0.16937 h 6.603998 l 0.762,0.0847 0.762035,0.33871 0.592632,0.59263 0.423368,0.67733 0.169298,0.76204 0.635018,5.92664 0.29635,2.286 -0.127035,0.80435 z"
   inkscape:connector-curvature="0"
   sodipodi:nodetypes="ccccccccccccccccccccccccccccccccccccccccccccccc"
   inkscape:label="#engrave_1543" /><path
   id="engrave_1517"
   style="opacity:0.5;fill:#00ff00;stroke:#000000;stroke-width:0.0881944;stroke-linecap:round;stroke-linejoin:round;stroke-miterlimit:10;stroke-dasharray:none;stroke-opacity:1"
   d="m 11.060381,135.72078 0.846701,-0.33867 0.761964,-0.508 0.677369,-0.67733 1.015998,-1.18533 1.269999,-0.84667 1.439334,-0.59267 1.524,-0.16933 h 6.519296 l 0.762,0.16933 0.762034,0.254 0.592632,0.59267 0.338702,0.59267 0.253999,0.762 1.100666,8.29733 -1.100666,8.29733 -0.253999,0.762 -0.338702,0.67734 -0.592632,0.508 -0.762034,0.33866 -0.762,0.0847 h -6.519296 l -1.524,-0.16933 -1.439334,-0.508 -1.269999,-0.93134 -1.015998,-1.10066 -0.677369,-0.67734 -0.761964,-0.59266 -0.846701,-0.33867 -1.015964,-0.0847 -1.3547021,-0.16933 -1.269965,-0.508 -1.185333,-0.67733 -1.015999,-1.01601 -0.762036,-1.18533 -0.423297,-1.27 -0.169334,-1.43933 0.169334,-1.35467 0.423297,-1.35466 0.762036,-1.10067 1.015999,-1.016 1.185333,-0.762 1.269965,-0.42333 1.3547021,-0.16934 z"
   inkscape:connector-curvature="0"
   sodipodi:nodetypes="ccccccccccccccccccccccccccccccccccccccccccccc"
   inkscape:label="#engrave_1517" /><path
   style="opacity:0.5;fill:#00ff00;stroke:#211c1c;stroke-width:0.0881944;stroke-linecap:butt;stroke-linejoin:miter;stroke-miterlimit:4;stroke-dasharray:none;stroke-opacity:1"
   d="m 28.727432,110.03827 v -0.6539 c 0,-1.66465 -1.35411,-3.01583 -3.02239,-3.01583 H 8.3576249 c -1.66829,0 -3.02239,1.35118 -3.02239,3.01583 v 15.3574 c 0,1.66465 1.3541,3.01564 3.02239,3.01564 H 25.705042 c 1.66828,0 3.02239,-1.35099 3.02239,-3.01564 v -0.6513 -5.47513 z"
   id="engrave_1655"
   inkscape:connector-curvature="0"
   sodipodi:nodetypes="cssssssssccc"
   inkscape:label="#engrave_1655" /><path
   inkscape:connector-curvature="0"
   id="engrave_1644"
   style="opacity:0.5;fill:#00ff00;stroke:#231f20;stroke-width:0.176389;stroke-linecap:butt;stroke-linejoin:miter;stroke-miterlimit:10;stroke-dasharray:none;stroke-opacity:1"
   d="m 28.55302,98.825305 c 0,1.646445 -1.31067,2.994335 -2.95829,3.042735 -2.91574,0.0853 -5.83254,0.12817 -8.749687,0.12799 -2.91695,0 -5.833751,-0.0426 -8.7494907,-0.12799 -1.64765,-0.0484 -2.95815,-1.39629 -2.95815,-3.042735 V 83.707548 c 0,-1.64641 1.3105,-2.99413 2.95815,-3.04235 h 1.8e-4 c 2.9155597,-0.0854 5.8325407,-0.12817 8.7494807,-0.12817 2.916977,0 5.833777,0.0427 8.749517,0.12817 1.64762,0.0482 2.95829,1.39594 2.95829,3.04235 v 8.93115 z"
   inkscape:label="#engrave_1644" /><path
   inkscape:connector-curvature="0"
   id="engrave_M3"
   style="opacity:0.5;fill:#00ff00;stroke:#231f20;stroke-width:0.176389;stroke-linecap:butt;stroke-linejoin:miter;stroke-miterlimit:10;stroke-dasharray:none;stroke-opacity:1"
   d="m 166.09416,22.62534 c 0,1.64645 -1.31067,2.99434 -2.95829,3.04274 -2.91574,0.0853 -5.83254,0.12817 -8.74969,0.12799 -2.91695,0 -5.83375,-0.0426 -8.74949,-0.12799 -1.64765,-0.0484 -2.95815,-1.39629 -2.95815,-3.04274 V 7.5075773 c 0,-1.64641 1.3105,-2.99413 2.95815,-3.04235 h 1.8e-4 c 2.91556,-0.0854 5.83254,-0.12817 8.74948,-0.12817 2.91698,0 5.83378,0.0427 8.74952,0.12817 1.64762,0.0482 2.95829,1.39594 2.95829,3.04235 V 16.43873 Z"
   inkscape:label="#engrave_M3" /><path
   style="opacity:0.5;fill:#00ff00;stroke:#231f20;stroke-width:0.0881944;stroke-linecap:butt;stroke-linejoin:miter;stroke-miterlimit:10;stroke-dasharray:none;stroke-opacity:1"
   d="m 28.19388,32.248149 c 0,-1.75835 -1.39647,-3.19772 -3.15193,-3.24937 -2.91454,-0.0855 -5.83029,-0.1289 -8.74606,-0.1289 -2.91575,0 -5.83131,0.0434 -8.7458898,0.1289 -1.75564,0.0516 -3.15211,1.49102 -3.15211,3.24937 v 15.13624 c 0,1.75821 1.39647,3.19772 3.15211,3.24923 2.9145798,0.0856 5.8301398,0.12851 8.7458898,0.12851 2.91577,0 5.83152,-0.0429 8.74592,-0.12851 h 1.4e-4 c 1.75546,-0.0515 3.15193,-1.49102 3.15193,-3.24923 v -5.54799 z"
   id="engrave_1638"
   inkscape:connector-curvature="0"
   sodipodi:nodetypes="scscsscsccscs"
   inkscape:label="#engrave_1638" /><path
   style="opacity:0.5;fill:#00ff00;stroke:#231f20;stroke-width:0.0881944;stroke-linecap:butt;stroke-linejoin:miter;stroke-miterlimit:10;stroke-dasharray:none;stroke-opacity:1"
   d="m 28.19998,57.684717 c 0,-1.75284 -1.39665,-3.18805 -3.15246,-3.23941 -2.91486,-0.0854 -5.83099,-0.12817 -8.74726,-0.12817 -2.9161,0 -5.83201,0.0427 -8.7469098,0.12817 -1.75581,0.0514 -3.15246,1.48657 -3.15246,3.23941 v 15.09057 c 0,1.75288 1.39665,3.18808 3.15246,3.23941 2.9148998,0.0854 5.8308098,0.12799 8.7470898,0.12799 2.91609,0 5.83222,-0.0426 8.74708,-0.12799 1.75581,-0.0513 3.15246,-1.48653 3.15246,-3.23941 v -5.53121 z"
   id="engrave_a1638"
   inkscape:connector-curvature="0"
   sodipodi:nodetypes="scscsscscscs"
   inkscape:label="#engrave_a1638" /><text
   id="text7554"
   style="font-variant:normal;font-weight:bold;font-size:4.23333px;font-family:Helvetica;-inkscape-font-specification:Helvetica-Bold;writing-mode:lr-tb;fill:#231f20;fill-opacity:1;fill-rule:nonzero;stroke:none;stroke-width:0.352778"
   x="-20.411636"
   y="140.58371"
   transform="rotate(-90)"
   inkscape:label="A1515"><tspan
     id="tspan7552"
     sodipodi:role="line"
     y="140.58371"
     x="-20.411636 -17.543726 -15.380484 -13.21353 -11.048433"
     style="stroke-width:0.352778">A1515</tspan></text><text
   id="text7564"
   style="font-variant:normal;font-weight:bold;font-size:4.23333px;font-family:Helvetica;-inkscape-font-specification:Helvetica-Bold;writing-mode:lr-tb;fill:#231f20;fill-opacity:1;fill-rule:nonzero;stroke:none;stroke-width:0.352778"
   x="-45.168179"
   y="140.58371"
   transform="rotate(-90)"
   inkscape:label="1515"><tspan
     id="tspan7562"
     sodipodi:role="line"
     y="140.58371"
     x="-45.168179 -43.004955 -40.841717 -38.672901"
     style="stroke-width:0.352778">1515</tspan></text><text
   y="73.019707"
   x="-173.355"
   id="text7544-3"
   style="font-variant:normal;font-weight:bold;font-size:4.23333px;font-family:Helvetica;-inkscape-font-specification:Helvetica-Bold;writing-mode:lr-tb;fill:#231f20;fill-opacity:1;fill-rule:nonzero;stroke:none;stroke-width:0.352778"
   transform="rotate(-90)"
   inkscape:label="A1517"><tspan
     style="stroke-width:0.352778"
     id="tspan7542-6"
     sodipodi:role="line"
     y="73.019707"
     x="-173.355 -170.48901 -168.32196 -166.15875 -163.9917">A1517</tspan></text><text
   y="140.58371"
   x="-71.031075"
   id="text7600-7"
   style="font-variant:normal;font-weight:bold;font-size:4.23333px;font-family:Helvetica;-inkscape-font-specification:Helvetica-Bold;writing-mode:lr-tb;fill:#231f20;fill-opacity:1;fill-rule:nonzero;stroke:none;stroke-width:0.352778"
   transform="rotate(-90)"
   inkscape:label="1542"><tspan
     style="stroke-width:0.352778"
     id="tspan7598-5"
     sodipodi:role="line"
     y="140.58371"
     x="-71.031075 -68.867836 -66.704597 -64.541389">1542</tspan></text><text
   y="73.019707"
   x="-20.722675"
   id="text7608-3"
   style="font-variant:normal;font-weight:bold;font-size:4.23333px;font-family:Helvetica;-inkscape-font-specification:Helvetica-Bold;writing-mode:lr-tb;fill:#231f20;fill-opacity:1;fill-rule:nonzero;stroke:none;stroke-width:0.352778"
   transform="rotate(-90)"
   inkscape:label="1518"><tspan
     style="stroke-width:0.352778"
     id="tspan7606-5"
     sodipodi:role="line"
     y="73.019707"
     x="-20.722675 -18.55949 -16.392429 -14.229207">1518</tspan></text><text
   y="73.019707"
   x="-198.49416"
   id="text9432-9"
   style="font-variant:normal;font-weight:bold;font-size:4.23333px;font-family:Helvetica;-inkscape-font-specification:Helvetica-Bold;writing-mode:lr-tb;fill:#231f20;fill-opacity:1;fill-rule:nonzero;stroke:none;stroke-width:0.352778"
   transform="rotate(-90)"
   inkscape:label="1543"><tspan
     style="stroke-width:0.352778"
     id="tspan9430-1"
     sodipodi:role="line"
     y="73.019707"
     x="-198.49416 -196.33092 -194.16771 -191.99889">1543</tspan></text><text
   y="73.019707"
   x="-149.73247"
   id="text7544-3-3"
   style="font-variant:normal;font-weight:bold;font-size:4.23333px;font-family:Helvetica;-inkscape-font-specification:Helvetica-Bold;writing-mode:lr-tb;fill:#231f20;fill-opacity:1;fill-rule:nonzero;stroke:none;stroke-width:0.352778"
   transform="rotate(-90)"
   inkscape:label="1517"><tspan
     style="stroke-width:0.352778"
     id="tspan7542-6-6"
     sodipodi:role="line"
     x="-146.86647 -144.69942 -142.53621 -140.36916">1517</tspan></text><text
   y="208.14772"
   x="-19.349722"
   id="text9248-3"
   style="font-variant:normal;font-weight:bold;font-size:4.23333px;font-family:Helvetica;-inkscape-font-specification:Helvetica-Bold;writing-mode:lr-tb;fill:#231f20;fill-opacity:1;fill-rule:nonzero;stroke:none;stroke-width:0.352778"
   transform="rotate(-90)"
   inkscape:label="M3"><tspan
     style="stroke-width:0.352778"
     id="tspan9246-6"
     sodipodi:role="line"
     y="208.14772"
     x="-19.349722">M3</tspan></text><text
   y="73.019707"
   x="-121.46012"
   id="text9248"
   style="font-variant:normal;font-weight:bold;font-size:4.23333px;font-family:Helvetica;-inkscape-font-specification:Helvetica-Bold;writing-mode:lr-tb;fill:#231f20;fill-opacity:1;fill-rule:nonzero;stroke:none;stroke-width:0.352778"
   transform="rotate(-90)"
   inkscape:label="1655"><tspan
     style="stroke-width:0.352778"
     id="tspan9246"
     sodipodi:role="line"
     y="73.019707"
     x="-121.46012 -119.29505 -117.13181 -114.96485">1655</tspan></text><text
   y="73.019707"
   x="-96.50013"
   id="text9256"
   style="font-variant:normal;font-weight:bold;font-size:4.23333px;font-family:Helvetica;-inkscape-font-specification:Helvetica-Bold;writing-mode:lr-tb;fill:#231f20;fill-opacity:1;fill-rule:nonzero;stroke:none;stroke-width:0.352778"
   transform="rotate(-90)"
   inkscape:label="1644"><tspan
     style="stroke-width:0.352778"
     id="tspan9254"
     sodipodi:role="line"
     y="73.019707"
     x="-96.50013 -94.336914 -92.173676 -90.004852">1644</tspan></text><text
   id="text32047"
   style="font-variant:normal;font-weight:bold;font-size:4.23333px;font-family:Helvetica;-inkscape-font-specification:Helvetica-Bold;writing-mode:lr-tb;fill:#231f20;fill-opacity:1;fill-rule:nonzero;stroke:none;stroke-width:0.352778"
   x="-72.007027"
   y="73.019707"
   transform="rotate(-90)"
   inkscape:label="A1638"><tspan
     id="tspan32045"
     sodipodi:role="line"
     y="73.019707"
     x="-72.007027 -69.14106 -66.974037 -64.810799 -62.643829"
     style="stroke-width:0.352778">A1638</tspan></text><text
   y="73.019707"
   x="-45.34626"
   id="text33879"
   style="font-variant:normal;font-weight:bold;font-size:4.23333px;font-family:Helvetica;-inkscape-font-specification:Helvetica-Bold;writing-mode:lr-tb;fill:#231f20;fill-opacity:1;fill-rule:nonzero;stroke:none;stroke-width:0.352778"
   transform="rotate(-90)"
   inkscape:label="1638"><tspan
     style="stroke-width:0.352778"
     id="tspan33877"
     sodipodi:role="line"
     y="73.019707"
     x="-45.34626 -43.18116 -41.017921 -38.85096">1638</tspan></text><path
   id="rect54"
   style="display:inline;opacity:1;fill:none;fill-rule:evenodd;stroke:#000000 icc-color(sRGB-IEC61966-2, 0.1, 0, 0, 0);stroke-width:0.0508;stroke-linecap:square;stroke-dasharray:0.2032;stroke-dashoffset:0"
   d="m 200.27901,12.191997 h 2.413 v 6.858 h -2.413 z"
   sodipodi:nodetypes="ccccc"
   sodipodi:insensitive="true" /></g></svg>
